<svg xmlns="http://www.w3.org/2000/svg" xmlns:xlink="http://www.w3.org/1999/xlink" width="20" height="20" viewBox="0 0 20 20" fill="none"><defs><rect id="path_0" x="0" y="0" width="11" height="10.999999999999998" /></defs><g opacity="1" transform="translate(0.9999999999997726 1)  rotate(0 9 9)"><path  id="circle 1" style="stroke:#B5B5B5; stroke-width:2; stroke-opacity:1; stroke-dasharray:0 0" transform="translate(0 0)  rotate(0 9 9)" d="M9,0C4.03,0 0,4.03 0,9C0,13.97 4.03,18 9,18C13.97,18 18,13.97 18,9C18,4.03 13.97,0 9,0Z " /><g opacity="1" transform="translate(3.5 3)  rotate(0 5.5 5.499999999999999)"><mask id="bg-mask-0" fill="white"><use xlink:href="#path_0"></use></mask><g mask="url(#bg-mask-0)" ><path id="group 1" fill-rule="evenodd" style="fill:#B5B5B5" transform="translate(0.5 0.5)  rotate(0 5.000000000000033 4.999999999999998)" opacity="1" d="M6.42 4.86C7.14 4.39 7.62 3.57 7.62 2.64C7.62 1.19 6.45 0 5 0C3.55 0 2.37 1.19 2.37 2.64C2.37 3.57 2.85 4.39 3.58 4.86C3.4 4.91 3.22 4.98 3.05 5.05C2.46 5.3 1.92 5.67 1.46 6.13C1 6.59 0.64 7.13 0.39 7.73C0.13 8.35 0 9.01 0 9.69C0 9.86 0.14 10 0.31 10C0.48 10 0.62 9.86 0.62 9.69C0.62 8.51 1.08 7.4 1.91 6.57C2.73 5.74 3.83 5.28 5 5.28C6.17 5.28 7.27 5.74 8.09 6.57C8.92 7.4 9.38 8.51 9.38 9.69C9.38 9.86 9.52 10 9.69 10C9.86 10 10 9.86 10 9.69C10 9.01 9.86 8.35 9.6 7.73C9.35 7.13 8.99 6.59 8.53 6.13C8.07 5.67 7.54 5.3 6.94 5.05C6.77 4.98 6.6 4.91 6.42 4.86ZM3 2.64C3 1.53 3.9 0.63 5 0.63C6.1 0.63 7 1.53 7 2.64C7 3.75 6.1 4.66 5 4.66C3.9 4.66 3 3.75 3 2.64Z" /><path id="group 1 (contour)" fill-rule="evenodd" style="fill:#B5B5B5" transform="translate(0 0)  rotate(0 5.5 5.499999999999999)" opacity="1" d="M0.24 10.76Q0.48 11 0.81 11Q1.14 11 1.38 10.76C1.54 10.6 1.62 10.41 1.62 10.19Q1.62 9.41 1.92 8.69C2.11 8.21 2.4 7.79 2.76 7.42Q3.315 6.865 4.02 6.58C4.49 6.38 4.98 6.28 5.5 6.28C6.02 6.28 6.51 6.38 6.98 6.58C7.45 6.77 7.87 7.05 8.23 7.42C8.6 7.79 8.89 8.21 9.08 8.69Q9.38 9.41 9.38 10.19C9.38 10.41 9.46 10.6 9.62 10.76C9.78 10.92 9.97 11 10.19 11C10.41 11 10.6 10.92 10.76 10.76C10.92 10.6 11 10.41 11 10.19C11 9.45 10.85 8.73 10.56 8.04C10.28 7.37 9.89 6.78 9.38 6.28C8.92 5.82 8.42 5.45 7.86 5.19C8 5.03 8.12 4.86 8.23 4.66C8.49 4.19 8.62 3.68 8.62 3.14C8.62 2.72 8.54 2.31 8.38 1.92C8.22 1.55 8 1.21 7.71 0.92C7.42 0.63 7.09 0.41 6.72 0.25C6.33 0.08 5.92 0 5.5 0C5.08 0 4.67 0.08 4.28 0.25C3.91 0.41 3.58 0.63 3.29 0.92C3 1.21 2.77 1.55 2.62 1.92C2.45 2.31 2.37 2.72 2.37 3.14Q2.37 3.95 2.76 4.67C2.87 4.86 2.99 5.03 3.13 5.19C2.57 5.46 2.06 5.82 1.61 6.28C1.1 6.78 0.71 7.37 0.43 8.04C0.14 8.72 0 9.44 0 10.19C0 10.41 0.08 10.6 0.24 10.76ZM1.96 6.63C1.5 7.09 1.14 7.63 0.89 8.23C0.63 8.85 0.5 9.51 0.5 10.19C0.5 10.36 0.64 10.5 0.81 10.5C0.98 10.5 1.12 10.36 1.12 10.19C1.12 9.01 1.58 7.9 2.41 7.07C3.23 6.24 4.33 5.78 5.5 5.78C6.67 5.78 7.77 6.24 8.59 7.07C9.42 7.9 9.88 9.01 9.88 10.19C9.88 10.36 10.02 10.5 10.19 10.5C10.36 10.5 10.5 10.36 10.5 10.19C10.5 9.51 10.36 8.85 10.1 8.23C9.85 7.63 9.49 7.09 9.03 6.63C8.58 6.18 8.06 5.82 7.48 5.57C7.47 5.56 7.45 5.56 7.44 5.55C7.27 5.48 7.1 5.41 6.92 5.36C7.08 5.25 7.24 5.13 7.37 4.99C7.83 4.51 8.12 3.86 8.12 3.14C8.12 1.69 6.95 0.5 5.5 0.5C4.05 0.5 2.87 1.69 2.87 3.14C2.87 3.86 3.16 4.51 3.62 4.99C3.76 5.13 3.91 5.25 4.08 5.36C3.9 5.41 3.72 5.48 3.55 5.55C3.54 5.56 3.53 5.56 3.51 5.57C2.94 5.82 2.41 6.18 1.96 6.63ZM3.5 3.14C3.5 2.03 4.4 1.13 5.5 1.13C6.6 1.13 7.5 2.03 7.5 3.14C7.5 4.25 6.6 5.16 5.5 5.16C4.4 5.16 3.5 4.25 3.5 3.14ZM7 3.14C7 3.56 6.85 3.91 6.55 4.21Q6.115 4.66 5.5 4.66C5.09 4.66 4.73 4.51 4.44 4.21C4.15 3.91 4 3.56 4 3.14C4 2.72 4.14 2.36 4.44 2.07C4.73 1.77 5.09 1.63 5.5 1.63C5.91 1.63 6.26 1.77 6.56 2.07C6.85 2.36 7 2.72 7 3.14Z" /></g></g><path id="union" fill-rule="evenodd" style="fill:#212121" transform="translate(3.5 3)  rotate(0 5.5 5.499999999999999)" opacity="1" d="M3.45731,5.56058c0.45949,-0.29696 -0.45174,0.27174 0,0c0.4137,-0.38343 -0.51645,0.19566 0,0z " /></g></svg>
