<?xml version="1.0" encoding="UTF-8"?>
<svg width="22px" height="22px" viewBox="0 0 22 22" version="1.1" xmlns="http://www.w3.org/2000/svg" xmlns:xlink="http://www.w3.org/1999/xlink">
    <title>NFT</title>
    <g id="page-1" stroke="none" stroke-width="1" fill="none" fill-rule="evenodd">
        <g id="NFT" transform="translate(1.000000, 1.000000)">
            <g id="group" transform="translate(0.000000, 4.000000)" fill="#B5B5B5">
                <path d="M20,12.9545625 C19.9818182,12.9345625 18.1,10.9145625 16.4363636,8.67456246 C15.8636364,7.89456246 15.2181818,7.49456246 14.5181818,7.49456246 L14.5181818,7.49456246 C13.1363636,7.49456246 11.9909091,9.03456246 10.7636364,10.6645625 C10.5818182,10.9245625 10.3818182,11.1845625 10.1909091,11.4345625 C9.67272727,12.1045625 9.16363636,12.4445625 8.68181818,12.4145625 C7.91818182,12.3845625 7.18181818,11.5145625 6.7,10.7945625 C6.27272727,10.1445625 5.70909091,9.76456246 5.09090909,9.69456246 C4.07272727,9.57456246 3.22727273,10.3045625 3,10.5245625 L0,12.7945625 L0.8,14.2845625 L3.89090909,11.9445625 L3.92727273,11.9045625 C4.03636364,11.7945625 4.51818182,11.3945625 4.94545455,11.4445625 C5.08181818,11.4645625 5.29090909,11.5245625 5.53636364,11.8845625 C6.51818182,13.3645625 7.55454545,14.1345625 8.62727273,14.1745625 C8.66363636,14.1845625 8.69090909,14.1845625 8.72727273,14.1845625 C9.63636364,14.1845625 10.4909091,13.6545625 11.2909091,12.6145625 C11.4909091,12.3545625 11.6909091,12.0945625 11.8818182,11.8345625 C12.7818182,10.6245625 13.8090909,9.25456246 14.5181818,9.25456246 L14.5181818,9.25456246 C14.6090909,9.25456246 14.8909091,9.25456246 15.3181818,9.83456246 C17.0363636,12.1445625 18.9272727,14.1745625 19,14.2645625 L20,12.9545625 Z" id="path-1"></path>
                <path d="M8.00061955,3 C8.00061955,1.34482759 6.65491972,0 4.99556053,0 C3.34631938,0 2.00061955,1.34482759 2.00061955,3 C2.00061955,4.65517241 3.34631938,6 4.99556053,6 C6.65491972,6 8.00061955,4.65517241 8.00061955,3 Z M3.54520977,3.00303762 C3.54520977,3.80241066 4.19276457,4.45131348 5.00220808,4.45131348 C5.80153354,4.45131348 6.44908835,3.80241066 6.44908835,3.00303762 C6.44908835,2.19426019 5.80153354,1.54535737 5.00220808,1.54535737 C4.19276457,1.54535737 3.54520977,2.19426019 3.54520977,3.00303762 Z" id="group-2"></path>
            </g>
            <path d="M1,0 L19,0 C19.5522847,-1.01453063e-16 20,0.44771525 20,1 L20,19 C20,19.5522847 19.5522847,20 19,20 L1,20 C0.44771525,20 6.76353751e-17,19.5522847 0,19 L0,1 C-6.76353751e-17,0.44771525 0.44771525,1.01453063e-16 1,0 Z" id="rectangle-2" stroke="#B5B5B5" stroke-width="2" stroke-dasharray="0"></path>
        </g>
    </g>
</svg>
