<svg xmlns="http://www.w3.org/2000/svg" xmlns:xlink="http://www.w3.org/1999/xlink" width="20" height="20" viewBox="0 0 20 20" fill="none"><g opacity="1" transform="translate(1 1)  rotate(0 9 9)"><path  id="circle 1" style="stroke:#B5B5B5; stroke-width:2; stroke-opacity:1; stroke-dasharray:0 0" transform="translate(0 0)  rotate(0 9 9)" d="M9,0C4.03,0 0,4.03 0,9C0,13.97 4.03,18 9,18C13.97,18 18,13.97 18,9C18,4.03 13.97,0 9,0Z " /><path id="group 2" fill-rule="evenodd" style="fill:#B5B5B5" transform="translate(4.72534335667001 3.5)  rotate(0 4.27465664332989 5.5)" opacity="1" d="M7.79 2.76L7.79 1.57C8.21 1.56 8.55 1.21 8.55 0.79C8.55 0.35 8.2 -2.51173e-15 7.76 -2.51173e-15L0.79 -2.51173e-15C0.35 -2.51173e-15 0 0.35 0 0.79C0 1.21 0.34 1.56 0.76 1.57L0.76 2.76C0.76 3.87 1.28 4.86 2.08 5.5C1.28 6.14 0.76 7.13 0.76 8.24L0.76 9.43C0.34 9.44 0 9.79 0 10.21C0 10.65 0.35 11 0.79 11L7.76 11C8.2 11 8.55 10.65 8.55 10.21C8.55 9.79 8.21 9.44 7.79 9.43L7.79 8.24C7.79 7.13 7.27 6.14 6.47 5.5C7.27 4.86 7.79 3.87 7.79 2.76Z M2.33475 1.57116L2.33475 2.76116C2.33475 3.83116 3.20475 4.70116 4.27475 4.70116C5.34475 4.70116 6.21475 3.83116 6.21475 2.76116L6.21475 1.57116L2.33475 1.57116L2.33475 1.57116Z M6.21475 9.42789L6.21475 8.23789C6.21475 7.16789 5.34475 6.29789 4.27475 6.29789C3.20475 6.29789 2.33475 7.16789 2.33475 8.23789L2.33475 9.42789L6.21475 9.42789L6.21475 9.42789Z " /></g></svg>
