<?xml version="1.0" encoding="UTF-8"?>
<svg width="22px" height="22px" viewBox="0 0 22 22" version="1.1" xmlns="http://www.w3.org/2000/svg" xmlns:xlink="http://www.w3.org/1999/xlink">
    <title>plugin</title>
    <defs>
        <rect id="path-1" x="0" y="0" width="20" height="20" rx="2"></rect>
    </defs>
    <g id="page-1" stroke="none" stroke-width="1" fill="none" fill-rule="evenodd">
        <g id="plugin" transform="translate(1.000000, 1.000000)">
            <path d="M2,0 L18,0 C19.1045695,-2.02906125e-16 20,0.8954305 20,2 L20,18 C20,19.1045695 19.1045695,20 18,20 L2,20 C0.8954305,20 1.3527075e-16,19.1045695 0,18 L0,2 C-1.3527075e-16,0.8954305 0.8954305,2.02906125e-16 2,0 Z" id="path-1" stroke="#B5B5B5" stroke-width="2" stroke-dasharray="0,0"></path>
            <mask id="mask-2" fill="white">
                <use xlink:href="#path-1"></use>
            </mask>
            <g id="path-1"></g>
            <g id="group" mask="url(#mask-2)">
                <g transform="translate(3.000000, 2.500000)">
                    <path d="M3,15 L3,15 C3.27,15 3.52,14.89 3.71,14.71 C3.89,14.52 4,14.27 4,14 L4,1 C4,0.73 3.89,0.48 3.71,0.29 C3.52,0.11 3.27,0 3,0 L3,0 C2.73,0 2.48,0.11 2.29,0.29 C2.11,0.48 2,0.73 2,1 L2,14 C2,14.27 2.11,14.52 2.29,14.71 C2.48,14.89 2.73,15 3,15 Z" id="rectangle-2" fill="#B5B5B5" fill-rule="nonzero"></path>
                    <g id="circle-2" stroke-width="1" fill="none" fill-rule="evenodd" transform="translate(0.000000, 2.000000)">
                        <path d="M3,0 C1.34,0 0,1.34 0,3 C0,4.66 1.34,6 3,6 C4.66,6 6,4.66 6,3 C6,1.34 4.66,0 3,0 Z" id="path" fill="#B5B5B5" fill-rule="nonzero"></path>
                        <path d="M3,2 C2.45,2 2,2.45 2,3 C2,3.55 2.45,4 3,4 C3.55,4 4,3.55 4,3 C4,2.45 3.55,2 3,2 Z" id="path" fill="#FFFFFF" fill-rule="nonzero"></path>
                    </g>
                </g>
            </g>
            <g id="group" mask="url(#mask-2)">
                <g transform="translate(11.000000, 2.500000)">
                    <path d="M4,14 L4,1 C4,0.73 3.89,0.48 3.71,0.29 C3.52,0.11 3.27,0 3,0 C2.73,0 2.48,0.11 2.29,0.29 C2.11,0.48 2,0.73 2,1 L2,14 C2,14.27 2.11,14.52 2.29,14.71 C2.48,14.89 2.73,15 3,15 C3.27,15 3.52,14.89 3.71,14.71 C3.89,14.52 4,14.27 4,14 Z" id="rectangle-2" fill="#B5B5B5" fill-rule="nonzero"></path>
                    <g id="circle-2" stroke-width="1" fill="none" fill-rule="evenodd" transform="translate(0.000000, 7.000000)">
                        <path d="M3,0 C1.34,0 0,1.34 0,3 C0,4.66 1.34,6 3,6 C4.66,6 6,4.66 6,3 C6,1.34 4.66,0 3,0 Z" id="path" fill="#B5B5B5" fill-rule="nonzero"></path>
                        <path d="M3,2 C2.45,2 2,2.45 2,3 C2,3.55 2.45,4 3,4 C3.55,4 4,3.55 4,3 C4,2.45 3.55,2 3,2 Z" id="path" fill="#FFFFFF" fill-rule="nonzero"></path>
                    </g>
                </g>
            </g>
        </g>
    </g>
</svg>
