<svg xmlns="http://www.w3.org/2000/svg" xmlns:xlink="http://www.w3.org/1999/xlink" width="22" height="20" viewBox="0 0 22 20" fill="none"><g opacity="1" transform="translate(0.844970703125 0)  rotate(0 10 10)"><path  id="path 4" style="stroke:#B5B5B5; stroke-width:2; stroke-opacity:1; stroke-dasharray:0 0" transform="translate(7.5 7.5)  rotate(0 2.5 2.5)" d="M5,2.5C5,1.12 3.88,0 2.5,0C1.12,0 0,1.12 0,2.5C0,3.88 1.12,5 2.5,5C3.88,5 5,3.88 5,2.5Z " /><path  id="polygon 1" style="stroke:#B5B5B5; stroke-width:2; stroke-opacity:1; stroke-dasharray:0 0" transform="translate(0 0)  rotate(90 10 10)" d="M10.5,19.71L18.16,15.29C18.47,15.11 18.66,14.78 18.66,14.42L18.66,5.58C18.66,5.22 18.47,4.89 18.16,4.71L10.5,0.29C10.19,0.11 9.81,0.11 9.5,0.29L1.84,4.71C1.53,4.89 1.34,5.22 1.34,5.58L1.34,14.42C1.34,14.78 1.53,15.11 1.84,15.29L9.5,19.71C9.81,19.89 10.19,19.89 10.5,19.71Z " /></g></svg>
