<svg xmlns="http://www.w3.org/2000/svg" xmlns:xlink="http://www.w3.org/1999/xlink" width="22" height="22" viewBox="0 0 22 22" fill="none"><g opacity="1" transform="translate(1 1)  rotate(0 10 10)"><path  id="path 2" style="stroke:#B5B5B5; stroke-width:2; stroke-opacity:1; stroke-dasharray:0 0" transform="translate(0 0)  rotate(0 10 10)" d="M20,10C20,4.48 15.52,0 10,0C4.48,0 0,4.48 0,10C0,15.52 4.48,20 10,20C15.52,20 20,15.52 20,10Z " /><path id="path 3" fill-rule="evenodd" style="fill:#B5B5B5" transform="translate(5.5 4)  rotate(0 4.5 6)" opacity="1" d="M2.5,2C1.12,2 0,3.12 0,4.5C0,5.88 1.12,7 2.5,7L6.5,7C6.78,7 7,7.22 7,7.5C7,7.78 6.78,8 6.5,8L1,8L1,10L3.5,10L3.5,12L5.5,12L5.5,10L6.5,10C7.88,10 9,8.88 9,7.5C9,6.12 7.88,5 6.5,5L2.5,5C2.22,5 2,4.78 2,4.5C2,4.22 2.22,4 2.5,4L8,4L8,2L5.5,2L5.5,0L3.5,0L3.5,2L2.5,2Z " /></g></svg>
