<?xml version="1.0" encoding="UTF-8"?>
<svg width="18px" height="19px" viewBox="0 0 18 19" version="1.1" xmlns="http://www.w3.org/2000/svg" xmlns:xlink="http://www.w3.org/1999/xlink">
    <title>about</title>
    <defs>
        <rect id="path-1" x="0" y="0" width="18" height="18"></rect>
    </defs>
    <g id="my" stroke="none" stroke-width="1" fill="none" fill-rule="evenodd">
        <g transform="translate(-30.000000, -736.000000)" id="about">
            <g transform="translate(30.000000, 736.500000)">
                <mask id="mask-2" fill="white">
                    <use xlink:href="#path-1"></use>
                </mask>
                <g id="path"></g>
                <path d="M9,0 C13.97,0 18,4.03 18,9 C18,13.97 13.97,18 9,18 C4.03,18 0,13.97 0,9 C0,4.03 4.03,0 9,0 Z M8.99999999,1.44 C4.81999999,1.44 1.43999999,4.82 1.43999999,9 C1.43999999,13.18 4.81999999,16.56 8.99999999,16.56 C13.18,16.56 16.56,13.18 16.56,9 C16.56,4.82 13.18,1.44 8.99999999,1.44 Z" id="group-1" fill="#212121" mask="url(#mask-2)"></path>
                <path d="M9,14.04 C9.6,14.04 10.08,13.56 10.08,12.96 C10.08,12.36 9.6,11.88 9,11.88 C8.4,11.88 7.92,12.36 7.92,12.96 C7.92,13.56 8.4,14.04 9,14.04 Z" id="path" fill="#212121" mask="url(#mask-2)"></path>
                <path d="M8.27999999,4.67999999 L8.27999999,10.44 C8.27999999,10.84 8.59999999,11.16 8.99999999,11.16 C9.39999999,11.16 9.71999999,10.84 9.71999999,10.44 L9.71999999,4.67999999 C9.71999999,4.27999999 9.39999999,3.95999999 8.99999999,3.95999999 C8.59999999,3.95999999 8.27999999,4.27999999 8.27999999,4.67999999 Z" id="path" fill="#212121" mask="url(#mask-2)"></path>
            </g>
        </g>
    </g>
</svg>
