<svg xmlns="http://www.w3.org/2000/svg" xmlns:xlink="http://www.w3.org/1999/xlink" width="18" height="18" viewBox="0 0 18 18" fill="none"><defs><rect id="path_0" x="0" y="0" width="18" height="18" /></defs><g opacity="1" transform="translate(0 0)  rotate(0 9 9)"><mask id="bg-mask-0" fill="white"><use xlink:href="#path_0"></use></mask><g mask="url(#bg-mask-0)" ><path id="分组 1" fill-rule="evenodd" style="fill:#212121" transform="translate(0 0)  rotate(0 9 9)" opacity="1" d="M0 9C0 13.97 4.03 18 9 18C13.97 18 18 13.97 18 9C18 4.03 13.97 0 9 0C4.03 0 0 4.03 0 9Z M16.56 9C16.56 4.82 13.18 1.44 9 1.44C4.82 1.44 1.44 4.82 1.44 9C1.44 13.18 4.82 16.56 9 16.56C13.18 16.56 16.56 13.18 16.56 9Z " /><path id="路径 3" fill-rule="evenodd" style="fill:#212121" transform="translate(7.920000000704881 11.880000009868361)  rotate(0 1.0799999992951173 1.0799999992951175)" opacity="1" d="M1.08,2.16C1.68,2.16 2.16,1.68 2.16,1.08C2.16,0.48 1.68,0 1.08,0C0.48,0 0,0.48 0,1.08C0,1.68 0.48,2.16 1.08,2.16Z " /><path id="路径 4" fill-rule="evenodd" style="fill:#212121" transform="translate(8.279999988721874 3.9599999915414066)  rotate(0 0.7200000024670893 3.6000000035244133)" opacity="1" d="M0,0.72L0,6.48C0,6.88 0.32,7.2 0.72,7.2C1.12,7.2 1.44,6.88 1.44,6.48L1.44,0.72C1.44,0.32 1.12,0 0.72,0C0.32,0 0,0.32 0,0.72Z " /></g></g></svg>