<svg xmlns="http://www.w3.org/2000/svg" xmlns:xlink="http://www.w3.org/1999/xlink" width="18" height="18" viewBox="0 0 18 18" fill="none"><g opacity="1" transform="translate(0 0)  rotate(0 9 9)"><path id="分组 1" fill-rule="evenodd" style="fill:#212121" transform="translate(0 0)  rotate(0 9 9)" opacity="1" d="M0 9C0 13.97 4.03 18 9 18C13.97 18 18 13.97 18 9C18 4.03 13.97 0 9 0C4.03 0 0 4.03 0 9Z M16.56 9C16.56 4.82 13.18 1.44 9 1.44C4.82 1.44 1.44 4.82 1.44 9C1.44 13.18 4.82 16.56 9 16.56C13.18 16.56 16.56 13.18 16.56 9Z " /><path id="路径 4" fill-rule="evenodd" style="fill:#212121" transform="translate(8.150000000000091 0.5)  rotate(49.02507971411151 0.8499999999999998 8.499999999999964)" opacity="1" d="M0,1.7L0,15.3C0,16.23 0.38,17 0.85,17C1.32,17 1.7,16.23 1.7,15.3L1.7,1.7C1.7,0.77 1.32,0 0.85,0C0.38,0 0,0.77 0,1.7Z " /></g></svg>