<svg xmlns="http://www.w3.org/2000/svg" xmlns:xlink="http://www.w3.org/1999/xlink" width="30" height="30" viewBox="0 0 30 30" fill="#FFA600">
  <defs><rect id="path_0" x="0" y="0" width="14.999999999999975" height="15" /></defs>
  <g opacity="1" transform="translate(0 0)  rotate(0 15 15)">
    <path id="rectangle 4" fill-rule="evenodd" transform="translate(0 0)  rotate(0 15 15)" opacity="1" d="M8,30L22,30C26.42,30 30,26.42 30,22L30,8C30,3.58 26.42,0 22,0L8,0C3.58,0 0,3.58 0,8L0,22C0,26.42 3.58,30 8,30Z " />
    <g opacity="1" transform="translate(7.5 7.5)  rotate(0 7.499999999999988 7.5)">
      <mask id="bg-mask-0" fill="white">
        <use xlink:href="#path_0"></use>
      </mask>
      <g mask="url(#bg-mask-0)" >
        <path id="path 1" fill-rule="evenodd" style="fill:#FFFFFF" transform="translate(6.2499999963378805 0)  rotate(0 1.2500000036621066 7.5)" opacity="1" d="M0,15L2.5,15L2.5,0L0,0L0,15Z " />
        <path id="path 2" fill-rule="evenodd" style="fill:#FFFFFF" transform="translate(0 6.249999996337892)  rotate(0 7.499999999999988 1.250000003662109)" opacity="1" d="M0,0L0,2.5L15,2.5L15,0L0,0Z " />
      </g>
    </g>
  </g>
</svg>
