<svg xmlns="http://www.w3.org/2000/svg" xmlns:xlink="http://www.w3.org/1999/xlink" width="27" height="27" viewBox="0 0 27 27" fill="none"><g opacity="1" transform="translate(-0.00019217456316056314 0.00002812245300987115)  rotate(0 13.421090612063505 13.402559768171939)"><path id="path 1" fill-rule="evenodd" style="fill:#FFA600" transform="translate(11.60742971854142 0)  rotate(0 1.8136608935220941 13.402559768171939)" opacity="1" d="M3.63,24.99L3.63,1.81C3.63,0.81 2.82,0 1.81,0C0.81,0 0,0.81 0,1.81L0,24.99C0,26 0.81,26.81 1.81,26.81C2.82,26.81 3.63,26 3.63,24.99Z " /><path id="path 2" fill-rule="evenodd" style="fill:#FFA600" transform="translate(0 11.59140304274331)  rotate(0 13.421090612063505 1.8111567254286398)" opacity="1" d="M26.84,1.81C26.84,0.81 26.03,0 25.03,0L1.81,0C0.81,0 0,0.81 0,1.81C0,2.81 0.81,3.62 1.81,3.62L25.03,3.62C26.03,3.62 26.84,2.81 26.84,1.81Z " /></g></svg>
