<svg xmlns="http://www.w3.org/2000/svg" xmlns:xlink="http://www.w3.org/1999/xlink" width="10" height="15" viewBox="0 0 10 15" fill="none"><defs><rect id="path_0" x="0" y="0" width="9.999999999999998" height="14.999999999999998" /></defs><g opacity="1" transform="translate(0 0)  rotate(0 4.999999999999999 7.499999999999999)"><mask id="bg-mask-0" fill="white"><use xlink:href="#path_0"></use></mask><g mask="url(#bg-mask-0)" ><path id="path 1" fill-rule="evenodd" style="fill:#212121" transform="translate(0 0)  rotate(0 4.999999999999999 7.499999999999999)" opacity="1" d="M7.94,0.22L0.34,6.57C0.12,6.75 0,7.01 0,7.29C0,7.57 0.12,7.84 0.34,8.02L8.44,14.78C8.61,14.93 8.83,15 9.05,15C9.32,15 9.59,14.88 9.78,14.66C10.12,14.26 10.06,13.66 9.66,13.33L2.43,7.29L9.16,1.67C9.57,1.34 9.62,0.74 9.28,0.34C8.94,-0.06 8.34,-0.11 7.94,0.22Z " /></g></g></svg>
