<svg xmlns="http://www.w3.org/2000/svg" xmlns:xlink="http://www.w3.org/1999/xlink" width="30" height="30" viewBox="0 0 30 30" fill="none"><g opacity="1" transform="translate(0 0)  rotate(0 15.000000000000046 15)"><path id="path 1" fill-rule="evenodd" style="fill:#F7931A" transform="translate(0 0)  rotate(0 15.000000000000046 15)" opacity="1" d="M15,0C6.72,0 0,6.72 0,15C0,23.28 6.72,30 15,30C23.28,30 30,23.28 30,15C30,6.72 23.28,0 15,0Z " /><path id="group 1" fill-rule="evenodd" style="fill:#FFFFFF" transform="translate(7.074014038874543 5.404608092161838)  rotate(-18.603009392653604 7.775137189626192 9.59512499332018)" opacity="1" d="M10.6711 11.9076L10.6611 11.9076L6.4411 10.6476L5.5011 13.8076L9.7211 15.0676C10.1411 15.1876 10.5911 15.1476 10.9811 14.9376C11.3611 14.7276 11.6511 14.3776 11.7711 13.9576C12.0311 13.0876 11.5411 12.1676 10.6711 11.9076Z M12.2158 6.68775L7.99585 5.42775L7.05585 8.58775L11.2759 9.84775L11.2759 9.84775C12.1459 10.1077 13.0659 9.60775 13.3258 8.73775C13.4559 8.31775 13.4058 7.86775 13.1959 7.47775C12.9958 7.09775 12.6358 6.80775 12.2158 6.68775Z M3.78 1.83L3.11 4.08L5.48 4.78L3.04 12.97L0.67 12.27L0 14.52L2.37 15.22L1.74 17.36L2.22 17.5L4.17 18.08L4.83 15.85L6.55 16.36L5.88 18.59L7.88 19.19L8.55 16.96L9.11 17.13C9.46 17.23 9.83 17.28 10.2 17.29C10.82 17.29 11.44 17.13 12 16.83C12.9 16.34 13.55 15.54 13.84 14.57C14.14 13.55 13.99 12.5 13.51 11.63C14.39 11.17 15.09 10.37 15.39 9.35C15.68 8.38 15.57 7.35 15.09 6.46C14.61 5.57 13.81 4.91 12.83 4.63L12.28 4.46L13.06 1.83L11.05 1.23L10.27 3.86L8.55 3.35L9.34 0.72L8.86 0.58L6.91 0L6.15 2.53L3.78 1.83Z " /></g></svg>
