<svg xmlns="http://www.w3.org/2000/svg" xmlns:xlink="http://www.w3.org/1999/xlink" width="70" height="70" viewBox="0 0 70 70" fill="none"><g opacity="1" transform="translate(0 0)  rotate(0 35 35)"><path id="group 1" fill-rule="evenodd" style="fill:#40C900" transform="translate(0 0)  rotate(0 35 35)" opacity="1" d="M7 35C7 50.4 19.6 63 35 63C50.4 63 63 50.4 63 35C63 19.6 50.4 7 35 7C19.6 7 7 19.6 7 35Z M0 35C0 54.25 15.75 70 35 70C54.25 70 70 54.25 70 35C70 15.75 54.25 -1.94289e-15 35 -1.94289e-15C15.75 -1.94289e-15 0 15.75 0 35Z " /><g opacity="1" transform="translate(18.5 24)  rotate(0 18.531288777509143 12.866947885405668)"><path id="juxing 5" fill-rule="evenodd" style="fill:#40C900" transform="translate(5.274675185879849 6.248663195064108)  rotate(-39.694619859340854 3.5 9.521855378241494)" opacity="1" d="M3.5,19.04L3.5,19.04C4.43,19.04 5.32,18.67 5.97,18.01C6.63,17.36 7,16.47 7,15.54L7,3.5C7,2.57 6.63,1.68 5.97,1.03C5.32,0.37 4.43,0 3.5,0L3.5,0C2.57,0 1.68,0.37 1.03,1.03C0.37,1.68 0,2.57 0,3.5L0,15.54C0,16.47 0.37,17.36 1.03,18.01C1.68,18.67 2.57,19.04 3.5,19.04Z " /><path id="juxing 5" fill-rule="evenodd" style="fill:#40C900" transform="translate(19.12956665173703 -3.014709815502787)  rotate(50.13119785678752 3.5 15.881657700908455)" opacity="1" d="M3.5,31.76L3.5,31.76C4.43,31.76 5.32,31.39 5.97,30.73C6.63,30.08 7,29.19 7,28.26L7,3.5C7,2.57 6.63,1.68 5.97,1.03C5.32,0.37 4.43,0 3.5,0L3.5,0C2.57,0 1.68,0.37 1.03,1.03C0.37,1.68 0,2.57 0,3.5L0,28.26C0,29.19 0.37,30.08 1.03,30.73C1.68,31.39 2.57,31.76 3.5,31.76Z " /></g></g></svg>
