<svg xmlns="http://www.w3.org/2000/svg" class="styles__StyledSVGIconPathComponent-sc-16fsqc8-0 klYEvc svg-icon-path-icon fill" viewBox="0 0 32 32" width="20" height="20">
  <defs data-reactroot=""></defs>
  <g>
    <path d="M28.544 1.109h-21.295v1.776h21.295v15.971h1.774v-17.747zM1.037 26.309h4.971l3.548 4.259 3.55-4.259h11.889v-19.698h-23.957v19.698zM2.814 8.386h20.407v16.149h-11.004l-0.533 0.709-2.129 2.661-2.129-2.661-0.533-0.71h-4.079v-16.145zM8.491 16.549c0 0.784-0.636 1.42-1.42 1.42s-1.42-0.636-1.42-1.42c0-0.784 0.636-1.42 1.42-1.42s1.42 0.636 1.42 1.42zM14.347 16.549c0 0.784-0.636 1.42-1.42 1.42s-1.42-0.636-1.42-1.42c0-0.784 0.636-1.42 1.42-1.42s1.42 0.636 1.42 1.42zM20.381 16.549c0 0.784-0.636 1.42-1.42 1.42s-1.42-0.636-1.42-1.42c0-0.784 0.636-1.42 1.42-1.42s1.42 0.636 1.42 1.42z"></path>
  </g>
</svg>
