<svg xmlns="http://www.w3.org/2000/svg" xmlns:xlink="http://www.w3.org/1999/xlink" width="15" height="16" viewBox="0 0 15 16" fill="none"><defs><rect id="path_0" x="0" y="0" width="14.774754154496957" height="16" /></defs><g opacity="1" transform="translate(0 0)  rotate(0 7.387377077248479 8)"><mask id="bg-mask-0" fill="white"><use xlink:href="#path_0"></use></mask><g mask="url(#bg-mask-0)" ><path id="path 1" fill-rule="evenodd" style="fill:#B5B5B5" transform="translate(1.5412298645814873 3.0769178406232376)  rotate(0 5.846153215321962 6.461541079688382)" opacity="1" d="M2.11,11.69L1.23,0.57L1.22,0.52C1.17,0.19 0.87,-0.03 0.54,0.01C0.22,0.04 -0.02,0.33 0,0.66L0.88,11.79L0.89,11.85C0.97,12.46 1.49,12.92 2.11,12.92L9.59,12.92L9.65,12.92C10.26,12.89 10.76,12.41 10.81,11.79L11.69,0.66L11.69,0.62C11.69,0.3 11.45,0.03 11.13,0L11.13,0L11.08,0C10.76,0 10.49,0.25 10.46,0.57L9.59,11.69L2.11,11.69Z " /><path id="path 2" fill-rule="evenodd" style="fill:#B5B5B5" transform="translate(0 2.461532173383214)  rotate(0 7.3873770772484795 0.6153909038534925)" opacity="1" d="M0.62,0L0.57,0C0.24,0.02 -0.01,0.31 0,0.64C0.01,0.97 0.29,1.23 0.62,1.23L14.16,1.23L14.2,1.23C14.53,1.21 14.79,0.92 14.77,0.59C14.76,0.26 14.49,0 14.16,0L0.62,0Z " /><path id="path 3" fill-rule="evenodd" style="fill:#B5B5B5" transform="translate(4.002761831924632 0)  rotate(0 3.384618523089921 1.8475346151724852)" opacity="1" d="M6.18,3.69C6.51,3.68 6.77,3.41 6.77,3.08L6.77,1.85L6.77,1.78C6.73,0.78 5.92,0 4.92,0L1.85,0L1.78,0C0.78,0.04 0,0.85 0,1.85L0,3.08L0,3.12C0.02,3.45 0.31,3.71 0.64,3.69C0.97,3.68 1.23,3.41 1.23,3.08L1.23,1.85L1.23,1.8C1.26,1.48 1.52,1.23 1.85,1.23L4.92,1.23L4.97,1.23C5.29,1.26 5.54,1.52 5.54,1.85L5.54,3.08L5.54,3.12C5.56,3.45 5.85,3.71 6.18,3.69Z " /><path id="path 4" fill-rule="evenodd" style="fill:#B5B5B5" transform="translate(4.3104541290094724 12.307692302655019)  rotate(0 3.0769230843609643 0.6153846186750742)" opacity="1" d="M0,0L0,0.62C0,0.96 0.28,1.23 0.62,1.23L5.54,1.23C5.88,1.23 6.15,0.96 6.15,0.62L6.15,0L0,0Z " /></g></g></svg>
