<?xml version="1.0" encoding="UTF-8"?>
<svg width="20px" height="21px" viewBox="0 0 20 21" version="1.1" xmlns="http://www.w3.org/2000/svg" xmlns:xlink="http://www.w3.org/1999/xlink">
    <title>group 16</title>
    <g id="effect（light--English）" stroke="none" stroke-width="1" fill="none" fill-rule="evenodd">
        <g id="chat（active）" transform="translate(-7.000000, 0.500000)">
            <g id="group-16" transform="translate(7.000000, 0.000000)">
                <path d="M20,9.07 C20,4.06 15.52,0 10,0 C4.48,0 0,4.06 0,9.07 C0,12.14 1.69,14.85 4.27,16.49 L4.22,20 L7.59,17.86 C8.36,18.04 9.17,18.14 10,18.14 C15.52,18.14 20,14.08 20,9.07 Z" id="path" fill="#FFA600"></path>
                <path d="M14.2857143,9.0677221 C14.2857143,9.9077221 14.9257143,10.5777221 15.7157143,10.5777221 C16.5057143,10.5777221 17.1457143,9.9077221 17.1457143,9.0677221 C17.1457143,8.2377221 16.5057143,7.5577221 15.7157143,7.5577221 C14.9257143,7.5577221 14.2857143,8.2377221 14.2857143,9.0677221 Z" id="path" fill="#FFFFFF"></path>
                <path d="M2.85714286,9.0677221 C2.85714286,9.9077221 3.49714286,10.5777221 4.28714286,10.5777221 C5.07714286,10.5777221 5.71714286,9.9077221 5.71714286,9.0677221 C5.71714286,8.2377221 5.07714286,7.5577221 4.28714286,7.5577221 C3.49714286,7.5577221 2.85714286,8.2377221 2.85714286,9.0677221 Z" id="path" fill="#FFFFFF"></path>
                <path d="M8.57142857,9.0677221 C8.57142857,9.9077221 9.21142857,10.5777221 10.0014286,10.5777221 C10.7914286,10.5777221 11.4314286,9.9077221 11.4314286,9.0677221 C11.4314286,8.2377221 10.7914286,7.5577221 10.0014286,7.5577221 C9.21142857,7.5577221 8.57142857,8.2377221 8.57142857,9.0677221 Z" id="path" fill="#FFFFFF"></path>
            </g>
        </g>
    </g>
</svg>
