<svg xmlns="http://www.w3.org/2000/svg" xmlns:xlink="http://www.w3.org/1999/xlink" width="24" height="20" viewBox="0 0 20 20" fill="#000">
  <path id="group 1" fill-rule="evenodd" transform="translate(2 0)  rotate(0 10 10)" opacity="1" d="M13.75 8.75C13.75 9.44 14.31 10 15 10C15.69 10 16.25 9.44 16.25 8.75C16.25 8.06 15.69 7.5 15 7.5C14.31 7.5 13.75 8.06 13.75 8.75Z M18.75 8.75C18.75 4.61 14.83 1.25 10 1.25C5.17 1.25 1.25 4.61 1.25 8.75C1.25 11.29 2.73 13.53 4.98 14.89L4.95 17.79L7.89 16.02C8.57 16.16 9.27 16.25 10 16.25C14.83 16.25 18.75 12.89 18.75 8.75Z M0 8.75C0 11.51 1.47 13.97 3.75 15.57L3.75 20L8.13 17.34C8.74 17.44 9.36 17.5 10 17.5C15.52 17.5 20 13.58 20 8.75C20 3.92 15.52 0 10 0C4.48 0 0 3.92 0 8.75Z M3.75 8.75C3.75 9.44 4.31 10 5 10C5.69 10 6.25 9.44 6.25 8.75C6.25 8.06 5.69 7.5 5 7.5C4.31 7.5 3.75 8.06 3.75 8.75Z M8.75 8.75C8.75 9.44 9.31 10 10 10C10.69 10 11.25 9.44 11.25 8.75C11.25 8.06 10.69 7.5 10 7.5C9.31 7.5 8.75 8.06 8.75 8.75Z " />
</svg>
