<?xml version="1.0" encoding="UTF-8"?>
<svg width="21px" height="21px" viewBox="0 0 21 21" version="1.1" xmlns="http://www.w3.org/2000/svg" xmlns:xlink="http://www.w3.org/1999/xlink">
    <title>group 1</title>
    <g id="effect（light--English）" stroke="none" stroke-width="1" fill="none" fill-rule="evenodd">
        <g id="group-5" transform="translate(-248.000000, -5.000000)" fill="#424242">
            <g id="component-2/chat（active）" transform="translate(246.750000, 5.500000)">
                <path d="M12,0 C17.52,0 22,3.92 22,8.75 C22,13.58 17.52,17.5 12,17.5 C11.36,17.5 10.74,17.44 10.13,17.34 L5.75,20 L5.75,15.57 C3.47,13.97 2,11.51 2,8.75 C2,3.92 6.48,0 12,0 Z M12,1.25 C7.17,1.25 3.25,4.61 3.25,8.75 C3.25,11.29 4.73,13.53 6.98,14.89 L6.95,17.79 L9.89,16.02 C10.57,16.16 11.27,16.25 12,16.25 C16.83,16.25 20.75,12.89 20.75,8.75 C20.75,4.61 16.83,1.25 12,1.25 Z M17,7.5 C17.69,7.5 18.25,8.06 18.25,8.75 C18.25,9.44 17.69,10 17,10 C16.31,10 15.75,9.44 15.75,8.75 C15.75,8.06 16.31,7.5 17,7.5 Z M7,7.5 C7.69,7.5 8.25,8.06 8.25,8.75 C8.25,9.44 7.69,10 7,10 C6.31,10 5.75,9.44 5.75,8.75 C5.75,8.06 6.31,7.5 7,7.5 Z M12,7.5 C12.69,7.5 13.25,8.06 13.25,8.75 C13.25,9.44 12.69,10 12,10 C11.31,10 10.75,9.44 10.75,8.75 C10.75,8.06 11.31,7.5 12,7.5 Z" id="group-1"></path>
            </g>
        </g>
    </g>
</svg>
