<svg xmlns="http://www.w3.org/2000/svg" xmlns:xlink="http://www.w3.org/1999/xlink" width="15" height="15" viewBox="0 0 15 15" fill="none"><defs><rect id="path_0" x="0" y="0" width="14.999999999999925" height="14.998617398512096" /></defs><g opacity="1" transform="translate(0 0)  rotate(0 7.499999999999963 7.499308699256048)"><mask id="bg-mask-0" fill="white"><use xlink:href="#path_0"></use></mask><g mask="url(#bg-mask-0)" ><path id="path 1" fill-rule="evenodd" style="fill:#212121" transform="translate(0 0)  rotate(0 7.499999999999964 7.499308699256048)" opacity="1" d="M7.5,9.18L12.98,14.65C13.21,14.88 13.51,15 13.81,15C14.12,15 14.42,14.88 14.65,14.65C15.11,14.19 15.12,13.44 14.65,12.98L9.17,7.5L14.65,2.02C15.12,1.56 15.12,0.81 14.65,0.35C14.19,-0.12 13.44,-0.12 12.98,0.35L7.5,5.82L2.02,0.35C1.56,-0.12 0.81,-0.12 0.35,0.35C-0.11,0.81 -0.11,1.56 0.35,2.03L5.82,7.5L0.35,12.97C-0.12,13.44 -0.12,14.19 0.35,14.65C0.58,14.88 0.89,15 1.18,15C1.48,15 1.79,14.88 2.02,14.65L7.5,9.18Z " /></g></g></svg>
