<svg xmlns="http://www.w3.org/2000/svg" xmlns:xlink="http://www.w3.org/1999/xlink" width="14" height="14" viewBox="0 0 14 14" fill="none"><defs><rect id="path_0" x="0" y="0" width="14" height="14" /></defs><g opacity="1" transform="translate(0.00016276041606033687 0)  rotate(0 7 7)"><mask id="bg-mask-0" fill="white"><use xlink:href="#path_0"></use></mask><g mask="url(#bg-mask-0)" ><path id="group 1" fill-rule="evenodd" style="fill:#636363" transform="translate(0 0)  rotate(0 7 7)" opacity="1" d="M9.91444 9.6951L12.5944 9.6951L12.5944 1.3951L12.5944 1.3951L1.40445 1.3951L1.40445 9.6951L4.08444 9.6951C4.18444 9.6951 4.27445 9.7051 4.37444 9.7351C4.46445 9.7551 4.55445 9.7751 4.63445 9.8051C4.71445 9.8351 4.79445 9.8851 4.87444 9.9351C4.95444 9.9851 5.02445 10.0451 5.08444 10.1151L7.00445 12.1251L8.91444 10.1151C9.04445 9.9851 9.20444 9.8851 9.37444 9.8051C9.54445 9.7351 9.72444 9.6951 9.91444 9.6951Z M13.68 0.31C13.47 0.1 13.21 0 12.91 0L12.91 0L1.09 0C0.79 0 0.53 0.1 0.32 0.31C0.11 0.52 0 0.77 0 1.07L0 10.02C0 10.32 0.11 10.58 0.32 10.78C0.53 10.99 0.79 11.09 1.09 11.09L4.09 11.09L6.8 13.92C6.86 13.97 6.92 14 7.01 14C7.03 14 7.05 13.99 7.07 13.98L7.2 13.92L9.91 11.09L12.91 11.09C13.21 11.09 13.47 10.99 13.68 10.78C13.89 10.58 14 10.32 14 10.02L14 1.07C14 0.77 13.89 0.52 13.68 0.31Z M4.68464 5.53437C4.68464 5.43437 4.66464 5.33437 4.63464 5.24437C4.60464 5.14437 4.56464 5.06437 4.50464 4.98437C4.44464 4.90437 4.37464 4.84437 4.30464 4.78437C4.22464 4.72437 4.13464 4.68437 4.04464 4.65437C3.94464 4.62437 3.85464 4.60437 3.74464 4.60437C3.49464 4.60437 3.28464 4.69437 3.09464 4.87437C2.91464 5.05437 2.82464 5.27437 2.82464 5.52437C2.82464 5.78437 2.91464 5.99437 3.09464 6.17437C3.28464 6.35437 3.49464 6.44437 3.74464 6.44437C3.89464 6.44437 4.02464 6.41437 4.15464 6.35437C4.50464 6.19437 4.68464 5.91437 4.68464 5.53437Z M7.6508 6.17495C7.8408 5.99495 7.9308 5.78495 7.9308 5.53495C7.9308 5.35495 7.8908 5.20495 7.8008 5.06495C7.7208 4.92495 7.6108 4.81495 7.4708 4.72495C7.3308 4.64495 7.1708 4.60495 7.0008 4.60495C6.8308 4.60495 6.6708 4.64495 6.5308 4.72495C6.3908 4.81495 6.2808 4.92495 6.1908 5.06495C6.1108 5.20495 6.0708 5.35495 6.0708 5.53495C6.0708 5.78495 6.1608 5.99495 6.3408 6.17495C6.5308 6.35495 6.7408 6.44495 7.0008 6.44495C7.2508 6.44495 7.4708 6.35495 7.6508 6.17495Z M10.278 6.44437C10.528 6.44437 10.748 6.35437 10.928 6.17437C11.118 5.99437 11.208 5.78437 11.208 5.53437C11.208 5.35437 11.168 5.20437 11.078 5.06437C10.998 4.92437 10.888 4.81437 10.748 4.72437C10.608 4.64437 10.448 4.60437 10.268 4.60437C10.018 4.60437 9.80799 4.69437 9.618 4.87437C9.43799 5.05437 9.34799 5.27437 9.34799 5.52437L9.34799 5.52437C9.34799 5.78437 9.43799 5.99437 9.618 6.17437C9.80799 6.35437 10.018 6.44437 10.278 6.44437Z " /></g></g></svg>
