<svg xmlns="http://www.w3.org/2000/svg" class="styles__StyledSVGIconPathComponent-sc-16fsqc8-0 icAfXc svg-icon-path-icon fill" viewBox="0 0 32 32" width="16" height="16" fill="none">
  <defs data-reactroot=""></defs>
  <g fill="#000">
    <path d="M10.355 22.074l0.434 0.352c0.651 0.529 1.378 0.957 2.157 1.267l0.512 0.203 0.48 3.84h4.122l0.48-3.825 0.517-0.203c0.789-0.309 1.525-0.738 2.183-1.269l0.435-0.352 3.712 1.565 2.062-3.569-3.267-2.475 0.069-0.537c0.044-0.322 0.069-0.693 0.069-1.071s-0.025-0.749-0.074-1.114l0.005 0.043-0.069-0.537 3.268-2.475-2.059-3.569-3.714 1.565-0.434-0.352c-0.626-0.509-1.347-0.937-2.126-1.249l-0.056-0.020-0.517-0.203-0.485-3.823h-4.117l-0.48 3.837-0.512 0.203c-0.826 0.335-1.538 0.761-2.173 1.279l0.015-0.012-0.434 0.352-3.744-1.575-2.061 3.569 3.303 2.501-0.067 0.533c-0.041 0.314-0.064 0.677-0.064 1.045s0.023 0.731 0.069 1.088l-0.004-0.042 0.067 0.537-3.303 2.501 2.061 3.569 3.742-1.579zM10.065 24.222l-4.245 1.79-3.707-6.421 3.772-2.857c-0.017-0.218-0.028-0.473-0.029-0.731v-0.002c0-0.245 0.011-0.491 0.027-0.734l-3.771-2.855 3.709-6.421 4.245 1.789c0.484-0.356 1.034-0.683 1.614-0.957l0.061-0.026 0.55-4.395h7.417l0.547 4.373c0.597 0.277 1.169 0.608 1.703 0.992l4.218-1.777 3.709 6.421-3.731 2.827c0.018 0.228 0.029 0.494 0.029 0.763s-0.010 0.534-0.031 0.797l0.002-0.035 3.73 2.827-3.708 6.421-4.217-1.776c-0.533 0.384-1.105 0.715-1.707 0.992l-0.546 4.373h-7.417l-0.55-4.395c-0.641-0.3-1.19-0.629-1.703-1.004l0.028 0.020zM16.021 20.964c-2.906 0-5.261-2.351-5.261-5.252s2.355-5.251 5.259-5.251c0.002 0 0.003 0 0.005 0 2.901 0 5.253 2.351 5.255 5.251v0c-0.002 2.901-2.354 5.252-5.255 5.252-0.001 0-0.002 0-0.003 0h0zM16.021 19.098c1.873 0 3.392-1.517 3.392-3.386s-1.519-3.385-3.392-3.385c-0.002 0-0.003 0-0.005 0-1.87 0-3.386 1.515-3.389 3.384v0c0.002 1.87 1.519 3.386 3.39 3.386 0.001 0 0.002 0 0.002 0h-0z"></path>
  </g>
</svg>
