<svg xmlns="http://www.w3.org/2000/svg" xmlns:xlink="http://www.w3.org/1999/xlink" width="29" height="21" viewBox="0 0 29 21" fill="none"><defs><rect id="path_0" x="0" y="0" width="28.874999999999957" height="21.000000000000025" /><linearGradient id="linear_0" x1="45.653%" y1="38.873999999999995%" x2="114.46799999999999%" y2="122.953%" gradientUnits="objectBoundingBox"><stop offset="0" stop-color="#00AB0B" stop-opacity="1" /><stop offset="1" stop-color="#05FF16" stop-opacity="1" /></linearGradient></defs><g opacity="1" transform="translate(0 0)  rotate(0 14.437499999999979 10.500000000000012)"><mask id="bg-mask-0" fill="white"><use xlink:href="#path_0"></use></mask><g mask="url(#bg-mask-0)" ><path id="路径 1" fill-rule="evenodd" fill="url(#linear_0)" transform="translate(6.03215384180908 1.354166656001329)  rotate(0 8.368808744626653 9.822916671999348)" opacity="1" d="M1.27,18.65C3.5,19.44 6.73,19.65 8.28,19.65C9.97,19.65 13.29,19.37 15.49,18.61C16.32,18.3 16.74,17.78 16.74,17.08C16.74,13.05 13.87,9.68 10.07,8.9C11.78,8.22 12.99,6.56 12.99,4.61C12.99,2.07 10.92,0 8.37,0C5.82,0 3.75,2.07 3.75,4.61C3.75,6.56 4.96,8.22 6.67,8.9C2.87,9.68 0,13.05 0,17.08C0,18.05 0.69,18.38 1.24,18.64L1.27,18.65Z " /><path id="路径 1" fill-rule="evenodd" style="fill:#07D918" transform="translate(6.03215384180908 1.354166656001329)  rotate(0 8.368808744626653 9.822916671999348)" opacity="1" d="M1.27,18.65C3.5,19.44 6.73,19.65 8.28,19.65C9.97,19.65 13.29,19.37 15.49,18.61C16.32,18.3 16.74,17.78 16.74,17.08C16.74,13.05 13.87,9.68 10.07,8.9C11.78,8.22 12.99,6.56 12.99,4.61C12.99,2.07 10.92,0 8.37,0C5.82,0 3.75,2.07 3.75,4.61C3.75,6.56 4.96,8.22 6.67,8.9C2.87,9.68 0,13.05 0,17.08C0,18.05 0.69,18.38 1.24,18.64L1.27,18.65Z " /><path id="分组 1" fill-rule="evenodd" style="fill:#00AD1D" transform="translate(0 0)  rotate(0 14.437499999999979 9.7235243133431)" opacity="1" d="M6.67 8.9C2.87 9.68 0 13.05 0 17.08C0 17.78 0.42 18.3 1.26 18.62C2.49 19.04 4.03 19.29 5.13 19.42C5.08 19.05 5.06 18.68 5.06 18.31C5.06 14.55 7.31 11.31 10.53 9.86C9.44 8.84 8.75 7.4 8.75 5.79C8.75 3.81 9.78 2.08 11.33 1.09L11.33 1.09C11.32 1.08 11.3 1.07 11.29 1.06C11.28 1.04 11.27 1.03 11.26 1.02C10.44 0.36 9.42 0 8.37 0C5.82 0 3.75 2.07 3.75 4.61C3.75 6.56 4.96 8.22 6.67 8.9Z M23.551 19.4504L23.571 19.4404C24.701 19.3104 26.321 19.0604 27.631 18.6104C28.461 18.3004 28.871 17.7804 28.871 17.0804C28.871 13.0504 26.011 9.68043 22.201 8.90043C23.911 8.22043 25.131 6.56043 25.131 4.61043C25.131 2.07043 23.051 0.000434004 20.501 0.000434004C19.441 0.000434004 18.401 0.370434 17.571 1.05043L17.451 1.15043C19.001 2.18043 19.931 3.92043 19.931 5.78043C19.931 7.40043 19.241 8.84043 18.151 9.86043C21.371 11.3104 23.621 14.5504 23.621 18.3104C23.621 18.6904 23.591 19.0704 23.551 19.4504Z " /></g></g></svg>