<svg xmlns="http://www.w3.org/2000/svg" xmlns:xlink="http://www.w3.org/1999/xlink" width="26" height="26" viewBox="0 0 26 26" fill="none"><g opacity="1" transform="translate(0 0)  rotate(0 13 13)"><path id="path 1" fill-rule="evenodd" style="fill:#202425" transform="translate(0 0)  rotate(0 13 13)" opacity="0.01" d="M0,26L26,26L26,0L0,0L0,26Z " /><path id="path 2" fill-rule="evenodd" style="fill:#FFBB00" transform="translate(17.333333341796767 5.200000078638566)  rotate(0 3.466666658203124 9.533333289782297)" opacity="1" d="M0,19.07L5.2,19.07C6.16,19.07 6.93,18.29 6.93,17.33L6.93,3.47C6.93,1.55 5.38,0 3.47,0C1.55,0 0,1.55 0,3.47L0,19.07Z " /><path id="path 3" fill-rule="evenodd" style="fill:#FF8000" transform="translate(1.7333333417968193 1.7333333417973336)  rotate(0 10.399999999999999 11.266666658203127)" opacity="1" d="M3.47,22.53L20.8,22.53C19.84,22.53 19.07,21.76 19.07,20.8L19.07,3.47C19.07,1.55 17.51,0 15.6,0L3.47,0C1.55,0 0,1.55 0,3.47L0,19.07C0,20.98 1.55,22.53 3.47,22.53Z " /><path id="group 1" fill-rule="evenodd" style="fill:#FFFFFF" transform="translate(4.766666658203181 5.633333341797128)  rotate(0 6.500000000000002 6.5)" opacity="1" d="M1.3 2.6L3.03 2.6C3.5 2.6 3.93 2.35 4.16 1.95C4.39 1.55 4.39 1.05 4.16 0.65C3.93 0.25 3.5 0 3.03 0L1.3 0C0.58 0 0 0.58 0 1.3C0 2.02 0.58 2.6 1.3 2.6Z M1.3 7.8L11.7 7.8C12.42 7.8 13 7.22 13 6.5C13 5.78 12.42 5.2 11.7 5.2L1.3 5.2C0.58 5.2 0 5.78 0 6.5C0 7.22 0.58 7.8 1.3 7.8Z M3.70706e-08 11.7C3.70706e-08 12.42 0.58 13 1.3 13L6.5 13C7.22 13 7.8 12.42 7.8 11.7C7.8 10.98 7.22 10.4 6.5 10.4L1.3 10.4C0.58 10.4 3.70706e-08 10.98 3.70706e-08 11.7Z " /></g></svg>
