<svg xmlns="http://www.w3.org/2000/svg" xmlns:xlink="http://www.w3.org/1999/xlink" width="24" height="24" viewBox="0 0 24 24" fill="none"><g opacity="1" transform="translate(4.618527782440651e-14 2.6645352591003757e-14)  rotate(0 11.5 11.499999999999973)"><path id="路径 1" fill-rule="evenodd" style="fill:#FF8000" transform="translate(12.384615384615403 12.384615384615346)  rotate(0 5.307692307692299 5.3076923076922995)" opacity="1" d="M8.85,0C6.88,0 3.73,0 1.77,0C0.79,0 0,0.79 0,1.77C0,3.73 0,6.88 0,8.85C0,9.82 0.79,10.62 1.77,10.62C3.73,10.62 6.88,10.62 8.85,10.62C9.82,10.62 10.62,9.82 10.62,8.85C10.62,6.88 10.62,3.73 10.62,1.77C10.62,0.79 9.82,0 8.85,0Z " /><path id="路径 2" fill-rule="evenodd" style="fill:#FF8000" transform="translate(0 12.384615384615346)  rotate(0 5.307692307692299 5.3076923076922995)" opacity="1" d="M8.85,0C6.88,0 3.73,0 1.77,0C0.79,0 0,0.79 0,1.77C0,3.73 0,6.88 0,8.85C0,9.82 0.79,10.62 1.77,10.62C3.73,10.62 6.88,10.62 8.85,10.62C9.82,10.62 10.62,9.82 10.62,8.85C10.62,6.88 10.62,3.73 10.62,1.77C10.62,0.79 9.82,0 8.85,0Z " /><path id="路径 3" fill-rule="evenodd" style="fill:#FFBB00" transform="translate(0 0)  rotate(0 5.307692307692299 5.3076923076922995)" opacity="1" d="M8.85,0C6.88,0 3.73,0 1.77,0C0.79,0 0,0.79 0,1.77C0,3.73 0,6.88 0,8.85C0,9.82 0.79,10.62 1.77,10.62C3.73,10.62 6.88,10.62 8.85,10.62C9.82,10.62 10.62,9.82 10.62,8.85C10.62,6.88 10.62,3.73 10.62,1.77C10.62,0.79 9.82,0 8.85,0Z " /><path id="路径 4" fill-rule="evenodd" style="fill:#FF8000" transform="translate(12.384615384615403 0)  rotate(0 5.307692307692299 5.3076923076922995)" opacity="1" d="M8.85,0C6.88,0 3.73,0 1.77,0C0.79,0 0,0.79 0,1.77C0,3.73 0,6.88 0,8.85C0,9.82 0.79,10.62 1.77,10.62C3.73,10.62 6.88,10.62 8.85,10.62C9.82,10.62 10.62,9.82 10.62,8.85C10.62,6.88 10.62,3.73 10.62,1.77C10.62,0.79 9.82,0 8.85,0Z " /></g></svg>