<svg xmlns="http://www.w3.org/2000/svg" xmlns:xlink="http://www.w3.org/1999/xlink" width="28" height="28" viewBox="0 0 28 28" fill="none"><g opacity="1" transform="translate(-0.00002441406249964473 -0.00002441406249964473)  rotate(0 13.912500000000003 13.912500000000003)"><path id="路径 1" fill-rule="evenodd" style="fill:#0055FF" transform="translate(0 0)  rotate(0 13.912500000000003 13.912500000000003)" opacity="1" d="M3.21,24.62C5.48,26.96 9.3,27.76 13.91,27.83C18.52,27.76 22.34,26.96 24.62,24.62C26.96,22.34 27.76,18.52 27.83,13.91C27.76,9.3 26.96,5.48 24.62,3.21C22.34,0.86 18.52,0.06 13.91,0C9.3,0.06 5.48,0.86 3.21,3.21C0.86,5.48 0.06,9.3 0,13.91C0.06,18.52 0.86,22.34 3.21,24.62Z " /><path id="路径 2" fill-rule="evenodd" style="fill:#00C8FF" transform="translate(9.284019348132231 8.23930067743757)  rotate(0 5.243584643887065 5.673199322562444)" opacity="1" d="M2.18,0.19C1.2,-0.36 0,0.35 0,1.47L0,9.88C0,11 1.2,11.7 2.18,11.16L9.73,6.95C10.74,6.39 10.74,4.95 9.73,4.39L2.18,0.19Z " /></g></svg>