<?xml version="1.0" encoding="UTF-8"?>
<svg width="18px" height="18px" viewBox="0 0 18 18" version="1.1" xmlns="http://www.w3.org/2000/svg" xmlns:xlink="http://www.w3.org/1999/xlink">
    <title>dark</title>
    <defs>
        <rect id="path-1" x="0" y="0" width="15.3994774" height="15.8583671"></rect>
    </defs>
    <g id="我的" stroke="none" stroke-width="1" fill="none" fill-rule="evenodd">
        <g transform="translate(-30.000000, -684.000000)" id="dark">
            <g transform="translate(30.000000, 684.000000)">
                <path d="M2.1775,3.35 L3.1475,3.96 C3.2175,4 3.2975,3.99 3.3575,3.95 C3.4175,3.9 3.4475,3.82 3.4275,3.75 L3.1575,2.65 C3.1375,2.58 3.1575,2.5 3.2175,2.45 L4.0875,1.72 C4.1475,1.67 4.1675,1.59 4.1475,1.52 C4.1175,1.45 4.0575,1.4 3.9875,1.39 L2.8475,1.31 C2.7675,1.31 2.7075,1.26 2.6775,1.19 L2.2575,0.13 C2.2275,0.05 2.1575,-4.4408921e-16 2.0775,-4.4408921e-16 C1.9975,-4.4408921e-16 1.9275,0.05 1.8975,0.13 L1.4775,1.19 C1.4475,1.26 1.3875,1.31 1.3075,1.31 L0.1675,1.39 C0.0975,1.4 0.0375,1.45 0.0075,1.52 C-0.0125,1.59 0.0075,1.67 0.0675,1.72 L0.9375,2.45 C0.9975,2.5 1.0175,2.58 0.9975,2.65 L0.7275,3.75 C0.7075,3.82 0.7375,3.9 0.7975,3.95 C0.8575,3.99 0.9375,4 1.0075,3.96 L1.9775,3.35 C2.0375,3.31 2.1175,3.31 2.1775,3.35 Z" id="星形-1" fill="#212121"></path>
                <path d="M6.1475,8.39 L6.6875,8.73 C6.7275,8.75 6.7875,8.75 6.8275,8.72 C6.8675,8.69 6.8875,8.64 6.8775,8.59 L6.7275,7.97 C6.7175,7.92 6.7275,7.87 6.7675,7.84 L7.2575,7.43 C7.2975,7.4 7.3175,7.34 7.2975,7.29 C7.2775,7.24 7.2275,7.2 7.1775,7.2 L6.5475,7.16 C6.4975,7.16 6.4575,7.13 6.4375,7.08 L6.1975,6.49 C6.1775,6.44 6.1275,6.41 6.0775,6.41 C6.0275,6.41 5.9775,6.44 5.9575,6.49 L5.7175,7.08 C5.6975,7.13 5.6575,7.16 5.6075,7.16 L4.9775,7.2 C4.9275,7.2 4.8775,7.24 4.8575,7.29 C4.8375,7.34 4.8575,7.4 4.8975,7.43 L5.3875,7.84 C5.4275,7.87 5.4375,7.92 5.4275,7.97 L5.2775,8.59 C5.2675,8.64 5.2875,8.69 5.3275,8.72 C5.3675,8.75 5.4275,8.75 5.4675,8.73 L6.0075,8.39 C6.0475,8.36 6.1075,8.36 6.1475,8.39 Z" id="星形-1" fill="#212121"></path>
                <g id="Clipped" transform="translate(2.378070, 1.991633)">
                    <mask id="mask-2" fill="white">
                        <use xlink:href="#path-1"></use>
                    </mask>
                    <g id="path_0"></g>
                    <g id="编组" mask="url(#mask-2)" fill="#000000">
                        <g transform="translate(-0.001071, 0.001328)">
                            <path d="M7.14050184,15.6570392 C7.26050184,15.6570392 7.38050184,15.6570392 7.51050184,15.6570392 C11.5305018,15.4770392 14.9005018,12.2270392 15.1805018,8.27703924 C15.4205018,4.87703924 13.4605018,1.70703924 10.3005018,0.377039241 C9.40050184,0.00703924117 8.92050184,0.297039241 8.72050184,0.497039241 C8.52050184,0.707039241 8.24050184,1.16703924 8.61050184,2.02703924 C8.94050184,2.78703924 9.11050184,3.59703924 9.10050184,4.43703924 C9.09050184,7.61703924 6.44050184,10.3270392 3.21050184,10.4570392 C2.74050184,10.4770392 2.29050184,10.4370392 1.84050184,10.3570392 C0.890501838,10.1870392 0.500501838,10.5670392 0.350501838,10.8170392 C0.200501838,11.0570392 0.0205018383,11.5770392 0.600501838,12.3570392 C2.12050184,14.4470392 4.54050184,15.6570392 7.14050184,15.6570392 Z M1.47255184,11.7222392 C2.85255184,13.6122392 5.10255184,14.6922392 7.46255184,14.5722392 C10.9425018,14.4222392 13.8625018,11.6222392 14.1125018,8.19226924 C14.3125018,5.26226924 12.6125018,2.52226924 9.87255184,1.36226924 C9.68255184,1.28226924 9.57255184,1.27226924 9.50255184,1.27226924 C9.51255184,1.33226924 9.52255184,1.43226924 9.60255184,1.59226924 C9.99255184,2.49226924 10.1925518,3.45226924 10.1925518,4.44226924 C10.1725518,8.20226924 7.06255184,11.3922392 3.26255184,11.5422392 C2.72255184,11.5622392 2.17255184,11.5222392 1.65255184,11.4322392 C1.47255184,11.3922392 1.36255184,11.4022392 1.29255184,11.4122392 C1.31255184,11.4622392 1.36255184,11.5722392 1.47255184,11.7222392 Z" id="分组-1"></path>
                            <path d="M8.90107143,4.43867219 C8.90107143,5.18867219 8.75107143,5.91867219 8.45107143,6.61867219 C8.15107143,7.29867219 7.75107143,7.90867219 7.22107143,8.44867219 C6.69107143,8.98867219 6.09107143,9.41867219 5.41107143,9.72867219 C4.70107143,10.0486722 3.97107143,10.2286722 3.20107143,10.2586722 C2.78107143,10.2786722 2.34107143,10.2386722 1.87107143,10.1586722 C1.41107143,10.0786722 1.03107143,10.1086722 0.711071429,10.2486722 C0.481071429,10.3486722 0.301071429,10.5086722 0.181071429,10.7186722 C0.0510714286,10.9186722 -0.00892857143,11.1386722 0.00107142857,11.3886722 C0.0110714286,11.7386722 0.161071429,12.0986722 0.441071429,12.4786722 C1.22107143,13.5486722 2.19107143,14.3786722 3.37107143,14.9686722 C4.55107143,15.5586722 5.81107143,15.8586722 7.14107143,15.8586722 L7.52107143,15.8586722 C8.53107143,15.8086722 9.51107143,15.5786722 10.4510714,15.1686722 C11.3510714,14.7686722 12.1710714,14.2186722 12.8910714,13.5286722 C13.6110714,12.8286722 14.1810714,12.0386722 14.6110714,11.1586722 C15.0510714,10.2486722 15.3110714,9.28867219 15.3810714,8.28867219 C15.4410714,7.42867219 15.3710714,6.57867219 15.1610714,5.74867219 C14.9510714,4.92867219 14.6310714,4.15867219 14.1810714,3.44867219 C13.7410714,2.72867219 13.2010714,2.08867219 12.5610714,1.53867219 C11.9010714,0.978672188 11.1810714,0.528672188 10.3810714,0.188672188 C9.94107143,0.0186721884 9.55107143,-0.0413278116 9.21107143,0.0286721884 C8.96107143,0.0786721884 8.75107143,0.188672188 8.58107143,0.358672188 L8.57107143,0.358672188 C8.41107143,0.538672188 8.30107143,0.738672188 8.25107143,0.978672188 C8.19107143,1.30867219 8.25107143,1.68867219 8.43107143,2.10867219 C8.75107143,2.85867219 8.91107143,3.62867219 8.90107143,4.43867219 Z M7.14107143,15.6586722 C4.54107143,15.6586722 2.12107143,14.4486722 0.601071429,12.3586722 C0.0210714286,11.5786722 0.201071429,11.0586722 0.351071429,10.8186722 C0.501071429,10.5686722 0.891071429,10.1886722 1.84107143,10.3586722 C2.29107143,10.4386722 2.74107143,10.4786722 3.21107143,10.4586722 C6.44107143,10.3286722 9.09107143,7.61867219 9.10107143,4.43867219 C9.11107143,3.59867219 8.94107143,2.78867219 8.61107143,2.02867219 C8.24107143,1.16867219 8.52107143,0.708672188 8.72107143,0.498672188 C8.92107143,0.298672188 9.40107143,0.00867218844 10.3010714,0.378672188 C13.4610714,1.70867219 15.4210714,4.87867219 15.1810714,8.27867219 C14.9010714,12.2286722 11.5310714,15.4786722 7.51107143,15.6586722 L7.14107143,15.6586722 Z M1.39107143,11.6086722 C1.41107143,11.6386722 1.44107143,11.6786722 1.47107143,11.7186722 C2.85107143,13.6086722 5.10107143,14.6886722 7.46107143,14.5686722 C10.9410714,14.4186722 13.8610714,11.6186722 14.1110714,8.18867219 C14.3110714,5.25867219 12.6110714,2.51867219 9.87107143,1.35867219 C9.81107143,1.33867219 9.76107143,1.31867219 9.71107143,1.30867219 C9.61107143,1.27867219 9.55107143,1.26867219 9.50107143,1.26867219 C9.51107143,1.31867219 9.52107143,1.37867219 9.55107143,1.47867219 C9.56107143,1.50867219 9.58107143,1.54867219 9.60107143,1.58867219 C9.99107143,2.48867219 10.1910714,3.44867219 10.1910714,4.43867219 C10.1710714,8.19867219 7.06107143,11.3886722 3.26107143,11.5386722 C2.72107143,11.5586722 2.17107143,11.5186722 1.65107143,11.4286722 C1.60107143,11.4186722 1.55107143,11.4086722 1.51107143,11.4086722 C1.44040143,11.4015722 1.38471143,11.4045722 1.34046143,11.4068722 C1.32211143,11.4077722 1.30573143,11.4086722 1.29107143,11.4086722 C1.31107143,11.4486722 1.34107143,11.5186722 1.39107143,11.6086722 Z M3.27107143,11.7386722 C4.23107143,11.7086722 5.15107143,11.4786722 6.03107143,11.0786722 C6.88107143,10.6886722 7.63107143,10.1586722 8.29107143,9.48867219 C8.94107143,8.80867219 9.46107143,8.04867219 9.82107143,7.19867219 C10.2010714,6.30867219 10.3910714,5.38867219 10.3910714,4.43867219 C10.3910714,3.43867219 10.1910714,2.46867219 9.80107143,1.54867219 C10.4610714,1.82867219 11.0510714,2.19867219 11.5910714,2.65867219 C12.1110714,3.10867219 12.5610714,3.62867219 12.9210714,4.21867219 C13.2910714,4.80867219 13.5610714,5.43867219 13.7210714,6.09867219 C13.9010714,6.77867219 13.9610714,7.47867219 13.9110714,8.17867219 C13.8510714,8.99867219 13.6410714,9.77867219 13.2810714,10.5286722 C12.9210714,11.2486722 12.4510714,11.8986722 11.8610714,12.4686722 C11.2710714,13.0386722 10.6010714,13.4886722 9.85107143,13.8086722 C9.08107143,14.1486722 8.28107143,14.3386722 7.45107143,14.3686722 C6.31107143,14.4286722 5.22107143,14.2086722 4.19107143,13.7186722 C3.17107143,13.2386722 2.32107143,12.5386722 1.66107143,11.6386722 C2.20107143,11.7286722 2.73107143,11.7586722 3.27107143,11.7386722 Z" id="分组-1-(轮廓)"></path>
                        </g>
                    </g>
                </g>
            </g>
        </g>
    </g>
</svg>