<svg xmlns="http://www.w3.org/2000/svg" xmlns:xlink="http://www.w3.org/1999/xlink" width="18" height="18" viewBox="0 0 18 18" fill="none"><defs><rect id="path_0" x="0" y="0" width="18" height="18" /></defs><g opacity="1" transform="translate(0 0)  rotate(0 9 9)"><mask id="bg-mask-0" fill="white"><use xlink:href="#path_0"></use></mask><g mask="url(#bg-mask-0)" ><path id="group 1" fill-rule="evenodd" style="fill:#DB0000" transform="translate(0 0)  rotate(0 9 9)" opacity="1" d="M11.66 0L6.34 0C5.32 0 4.5 0.82 4.5 1.84L4.5 3.27L0.61 3.27C0.29 3.27 0 3.56 0 3.89C0 4.21 0.29 4.5 0.61 4.5L17.39 4.5C17.71 4.5 18 4.21 18 3.89C18 3.56 17.71 3.27 17.39 3.27L13.5 3.27L13.5 1.84C13.5 0.82 12.68 0 11.66 0Z M12.2773 3.27727L12.2773 1.83727C12.2773 1.51727 11.9873 1.22727 11.6573 1.22727L6.33727 1.22727C6.01727 1.22727 5.72727 1.51727 5.72727 1.83727L5.72727 3.27727L12.2773 3.27727Z M14.6855 15.6273C14.6855 16.2373 14.1955 16.7773 13.5455 16.7773L4.41545 16.7773C3.80545 16.7773 3.27545 16.2773 3.27545 15.6273L3.27545 6.33727C3.27545 6.01727 2.98545 5.72727 2.65545 5.72727C2.33545 5.72727 2.04545 6.01727 2.04545 6.33727L2.04545 15.6273C2.04545 16.9373 3.10545 17.9973 4.41545 17.9973L13.5855 17.9973C14.8955 17.9973 15.9555 16.9373 15.9555 15.6273L15.9555 6.33727C15.9155 6.01727 15.6255 5.72727 15.2955 5.72727C14.9755 5.72727 14.6855 6.01727 14.6855 6.33727L14.6855 15.6273Z " /><path id="group 2" fill-rule="evenodd" style="fill:#DB0000" transform="translate(6.054545454545455 5.7272727272727275)  rotate(0 2.9454545454545458 4.909090909090909)" opacity="1" d="M1.23 0.61C1.23 0.29 0.94 0 0.61 0C0.29 0 0 0.29 0 0.61L0 9.2C0 9.53 0.29 9.82 0.61 9.82C0.94 9.82 1.23 9.53 1.23 9.2L1.23 0.61Z M5.89364 0.61C5.89364 0.29 5.60364 0 5.27364 0C4.95364 0 4.66364 0.29 4.66364 0.61L4.66364 9.2C4.66364 9.53 4.95364 9.82 5.27364 9.82C5.60364 9.82 5.89364 9.53 5.89364 9.2L5.89364 0.61Z " /></g></g></svg>
