<svg xmlns="http://www.w3.org/2000/svg" xmlns:xlink="http://www.w3.org/1999/xlink" width="15" height="15" viewBox="0 0 15 15" fill="none"><defs><rect id="path_0" x="0" y="0" width="15" height="15" /></defs><g opacity="1" transform="translate(0 0)  rotate(0 7.5 7.5)"><mask id="bg-mask-0" fill="white"><use xlink:href="#path_0"></use></mask><g mask="url(#bg-mask-0)" ><g opacity="1" transform="translate(0 0)  rotate(0 7.5 7.5)"><path id="path 1" fill-rule="evenodd" style="fill:#212121" transform="translate(5.440152104787454 0)  rotate(0 4.779923947606273 4.779923947606272)" opacity="1" d="M8.54,0.18L0.17,8.55C-0.06,8.78 -0.06,9.16 0.17,9.39C0.4,9.62 0.78,9.62 1.01,9.39L9.38,1.02C9.53,0.87 9.59,0.65 9.54,0.44C9.49,0.24 9.32,0.07 9.12,0.02C8.91,-0.03 8.69,0.03 8.54,0.18L8.54,0.18Z " /><path id="path 2" fill-rule="evenodd" style="fill:#212121" transform="translate(0 0.007287046380134443)  rotate(0 7.496356476809934 7.496356476809932)" opacity="1" d="M1.18,12.82L1.18,2.17C1.18,1.63 1.63,1.18 2.17,1.18L8.48,1.18C8.81,1.18 9.07,0.92 9.07,0.59C9.07,0.27 8.81,0 8.48,0L2.17,0C0.97,0 0,0.97 0,2.17L0,12.82C0,14.02 0.97,14.99 2.17,14.99L12.82,14.99C14.02,14.99 14.99,14.02 14.99,12.82L14.99,6.31C14.99,5.99 14.73,5.72 14.4,5.72C14.07,5.72 13.81,5.99 13.81,6.31L13.81,12.82C13.81,13.37 13.37,13.81 12.82,13.81L2.17,13.81C1.63,13.81 1.18,13.37 1.18,12.82Z " /></g></g></g></svg>
