<svg xmlns="http://www.w3.org/2000/svg" xmlns:xlink="http://www.w3.org/1999/xlink" width="30" height="30" viewBox="0 0 30 30" fill="none"><defs><rect id="path_0" x="0" y="0" width="29.999999999999975" height="29.999999999999975" /></defs><g opacity="1" transform="translate(0 0)  rotate(0 14.999999999999988 14.999999999999988)"><mask id="bg-mask-0" fill="white"><use xlink:href="#path_0"></use></mask><g mask="url(#bg-mask-0)" ><path id="路径 1" fill-rule="evenodd" style="fill:#3E5BF2" transform="translate(0 0)  rotate(0 14.999999999999988 14.999999999999988)" opacity="1" d="M0,15C0,23.29 6.71,30 15,30C23.29,30 30,23.29 30,15C30,6.71 23.29,0 15,0C6.72,0 0,6.71 0,15Z " /><path id="分组 1" fill-rule="evenodd" style="fill:#FFFFFF" transform="translate(8.43164062589298 4.3037109208881335)  rotate(0 6.5698242185496465 10.696548459567637)" opacity="1" d="M6.57129 14.95L13.1413 11.01L6.57129 0L6.57129 14.95Z M13.1413 11.9619L6.57129 15.9319L6.57129 21.3919L13.1413 11.9619Z M0 11.01L6.57 14.95L6.57 0L0 11.01Z " /><path id="路径 5" fill-rule="evenodd" style="fill:#FFFFFF" transform="translate(8.43164062589298 16.26562498296453)  rotate(0 3.2856445314961418 4.715332033419499)" opacity="1" d="M0,0L6.57,9.43L6.57,3.97L0,0Z " /></g></g></svg>