<svg xmlns="http://www.w3.org/2000/svg" xmlns:xlink="http://www.w3.org/1999/xlink" width="20" height="20" viewBox="0 0 20 20" fill="none"><defs><rect id="path_0" x="0" y="0" width="20" height="19.999999999999975" /></defs><g opacity="1" transform="translate(0 0)  rotate(0 10 9.999999999999988)"><mask id="bg-mask-0" fill="white"><use xlink:href="#path_0"></use></mask><g mask="url(#bg-mask-0)" ><g opacity="1" transform="translate(0 0)  rotate(0 10 9.999999999999988)"><path id="路径 1" fill-rule="evenodd" style="fill:#1296DB" transform="translate(0 0)  rotate(0 10 9.95331950207468)" opacity="1" d="M20,10C20,4.47 15.53,0 10,0C4.47,0 0,4.48 0,10C0,15.09 3.82,19.29 8.74,19.91L8.74,12.82L6.43,12.82L6.43,10.03L8.76,10.03L8.76,7.98C8.76,6.8 9.07,5.89 9.7,5.25C10.33,4.61 11.17,4.28 12.22,4.28C13.11,4.28 13.81,4.33 14.29,4.4L14.29,6.9L12.86,6.9C12.33,6.9 11.99,7.01 11.8,7.24C11.63,7.47 11.54,7.8 11.54,8.26L11.54,10.04L14.2,10.04L13.85,12.83L11.54,12.83L11.54,19.87C16.33,19.13 20,15 20,10Z " /><path id="路径 2"  style="fill:#1296DB" transform="translate(9.989626556016598 19.999999999999975)  rotate(0 0.010373443983402498 0.010130316390041482)" opacity="1" d="" /></g></g></g></svg>