<svg xmlns="http://www.w3.org/2000/svg" xmlns:xlink="http://www.w3.org/1999/xlink" width="20" height="21" viewBox="0 0 20 21" fill="none"><g opacity="1" transform="translate(1.000040690104015 1)  rotate(-90 9 9)"><path  id="circle 1" style="stroke:#212121; stroke-width:2; stroke-opacity:1; stroke-dasharray:0 0" transform="translate(0 0)  rotate(0 9 9)" d="M9,0C4.03,0 0,4.03 0,9C0,13.97 4.03,18 9,18C13.97,18 18,13.97 18,9C18,4.03 13.97,0 9,0Z " /><g opacity="1" transform="translate(6 5)  rotate(0 2.5 4.5)"><g opacity="1" transform="translate(0 0)  rotate(0 2.5 4.5)"><path id="line 1"  style="fill:#212121" transform="translate(0 0)  rotate(0 1.5 1.5)" opacity="1" d="M2.29289 -0.707107Q2.36254 -0.776751 2.44443 -0.83147Q2.52632 -0.886188 2.61732 -0.923879Q2.70831 -0.96157 2.80491 -0.980785Q2.90151 -1 3 -1Q3.09849 -1 3.19509 -0.980785Q3.29169 -0.96157 3.38268 -0.923879Q3.47368 -0.886188 3.55557 -0.831469Q3.63746 -0.776751 3.70711 -0.707107Q3.84776 -0.566454 3.92388 -0.382683Q4 -0.198912 4 0Q4 0.198912 3.92388 0.382683Q3.84776 0.566455 3.70711 0.707107L0.707107 3.70711Q0.566454 3.84776 0.382683 3.92388Q0.198912 4 0 4Q-0.198912 4 -0.382683 3.92388Q-0.566455 3.84776 -0.707107 3.70711Q-0.776751 3.63746 -0.83147 3.55557Q-0.886188 3.47368 -0.923879 3.38268Q-0.96157 3.29169 -0.980785 3.19509Q-1 3.09849 -1 3Q-1 2.90151 -0.980785 2.80491Q-0.96157 2.70831 -0.923879 2.61732Q-0.886188 2.52632 -0.83147 2.44443Q-0.776751 2.36254 -0.707107 2.29289L2.29289 -0.707107Z " /><path  id="line 1" style="stroke:#212121; stroke-width:2; stroke-opacity:1; stroke-dasharray:0 0" transform="translate(0 0)  rotate(0 1.5 1.5)" d="" /><path id="line 1"  style="fill:#212121" transform="translate(0 3)  rotate(0 2.5 3)" opacity="1" d="M-0.640184 -0.768221Q-0.715848 -0.705169 -0.777756 -0.628566Q-0.839664 -0.551964 -0.885439 -0.464756Q-0.931213 -0.377548 -0.959095 -0.283085Q-0.986976 -0.188623 -0.995893 -0.0905357Q-1.00481 0.00755118 -0.99442 0.105493Q-0.98403 0.203435 -0.954732 0.297468Q-0.925434 0.391501 -0.878354 0.478011Q-0.831274 0.564521 -0.768221 0.640184L4.23178 6.64018Q4.35912 6.79299 4.53524 6.88544Q4.71137 6.97788 4.90946 6.99589Q5.10756 7.0139 5.29747 6.95473Q5.48738 6.89556 5.64018 6.76822Q5.71585 6.70517 5.77776 6.62857Q5.83966 6.55196 5.88544 6.46476Q5.93121 6.37755 5.95909 6.28308Q5.98698 6.18862 5.99589 6.09054Q6.00481 5.99245 5.99442 5.89451Q5.98403 5.79656 5.95473 5.70253Q5.92543 5.6085 5.87835 5.52199Q5.83127 5.43548 5.76822 5.35982L0.768221 -0.640184Q0.705169 -0.715848 0.628566 -0.777756Q0.551964 -0.839664 0.464756 -0.885439Q0.377548 -0.931213 0.283085 -0.959095Q0.188623 -0.986976 0.0905357 -0.995893Q-0.00755118 -1.00481 -0.105493 -0.99442Q-0.203435 -0.98403 -0.297468 -0.954732Q-0.391501 -0.925434 -0.478011 -0.878354Q-0.564521 -0.831274 -0.640184 -0.768221Z " /><path  id="line 1" style="stroke:#212121; stroke-width:2; stroke-opacity:1; stroke-dasharray:0 0" transform="translate(0 3)  rotate(0 2.5 3)" d="" /></g></g></g></svg>
