<svg xmlns="http://www.w3.org/2000/svg" xmlns:xlink="http://www.w3.org/1999/xlink" width="42" height="32" viewBox="0 0 42 32" fill="none"><defs><rect id="path_0" x="0" y="0" width="42" height="31.869807841381306" /></defs><g opacity="1" transform="translate(0 0)  rotate(0 21 15.934903920690653)"><mask id="bg-mask-0" fill="white"><use xlink:href="#path_0"></use></mask><g mask="url(#bg-mask-0)" ><path id="分组 1" fill-rule="evenodd" style="fill:#6A02CC" transform="translate(0 0)  rotate(0 21 15.934903920690653)" opacity="1" d="M11.62 0C3.95 0 1.53 8.52 0.27 20.3C-0.47 26.61 0.16 31.87 4.05 31.87C9.51 31.87 9.72 26.93 13.61 24.61C15.08 23.88 18.34 23.56 21.07 23.46C23.81 23.56 27.06 23.88 28.53 24.61C32.42 26.93 32.63 31.87 38.1 31.87C41.88 31.97 42.4 26.72 41.77 20.41C40.41 8.52 37.99 0 30.32 0C26.43 0 24.44 4 20.97 4.31C17.4 4 15.5 0 11.62 0Z M17.1872 13.8845C17.1872 10.8345 14.7672 8.41447 11.7172 8.41447C8.67721 8.41447 6.25721 10.9345 6.25721 13.8845C6.25721 16.8245 8.67721 19.3545 11.7172 19.3545C14.6672 19.3545 17.1872 16.9345 17.1872 13.8845Z M29.7965 14.9348L29.7965 19.2448L31.8965 19.2448L31.8965 14.9348L36.2065 14.9348L36.2065 12.8348L31.8965 12.8348L31.8965 8.62483L29.7965 8.62483L29.7965 12.8348L25.4865 12.8348L25.4865 14.9348L29.7965 14.9348Z " /><path id="路径 4" fill-rule="evenodd" style="fill:#6A02CC" transform="translate(8.568932620151157 10.728450164425396)  rotate(0 3.152348054052105 3.1554265189486443)" opacity="1" d="M0.95,5.36C1.47,5.89 2.31,6.31 3.15,6.31C3.99,6.31 4.73,6 5.36,5.36C5.88,4.84 6.3,4 6.3,3.16C6.3,2.31 5.99,1.58 5.36,0.95C4.83,0.42 3.99,0 3.15,0C2.31,0 1.58,0.32 0.95,0.95C0.32,1.47 0,2.31 0,3.16C0,4 0.32,4.73 0.95,5.36Z " /></g></g></svg>