<svg xmlns="http://www.w3.org/2000/svg" xmlns:xlink="http://www.w3.org/1999/xlink" width="22" height="20" viewBox="0 0 22 20" fill="none">
  <defs>
    <rect id="path_0" x="0" y="0" width="22" height="19.82128573413047" />
  </defs>
  <g opacity="1" transform="translate(0 -0.000026855468746589395)  rotate(0 11 9.910642867065235)">
    <mask id="bg-mask-0" fill="white">
      <use xlink:href="#path_0"></use>
    </mask>
    <g mask="url(#bg-mask-0)" >
      <path id="group 1" fill-rule="evenodd" style="fill:#212121" transform="translate(0 0)  rotate(0 10.999869794366191 9.910642867065235)" opacity="1" d="M12.43 0.48C11.63 -0.16 10.37 -0.16 9.57 0.48L0.28 7.82C-0.04 8.08 -0.09 8.54 0.16 8.85C0.41 9.17 0.86 9.22 1.18 8.98L1.47 8.74L1.47 17.62C1.47 18.88 2.79 19.82 3.96 19.82L18.62 19.82C19.77 19.82 20.53 18.94 20.53 17.62L20.53 8.77L20.8 8.98C20.93 9.08 21.1 9.13 21.26 9.13C21.48 9.13 21.69 9.04 21.84 8.85C22.09 8.54 22.04 8.08 21.72 7.82L12.43 0.48Z M11.735 18.3526L11.735 14.2826C11.735 14.0826 11.365 13.9826 10.995 13.9826C10.635 13.9826 10.265 14.0826 10.265 14.2826L10.265 18.3526L11.735 18.3526Z M13.1961 14.2875L13.1961 18.3276C13.1961 18.3376 13.2161 18.3475 13.2161 18.3575L18.6261 18.3575C18.9361 18.3575 19.0661 18.1075 19.0661 17.6175L19.0661 17.6175L19.0661 7.60755L11.4961 1.62755C11.2261 1.41755 10.7461 1.41755 10.4661 1.62755L2.93611 7.57755L2.93611 17.6175C2.93611 17.9576 3.49611 18.3575 3.96611 18.3575L8.81611 18.3575C8.81611 18.3475 8.79611 18.3376 8.79611 18.3276L8.79611 14.2875C8.79611 13.4375 9.48611 12.5175 10.9961 12.5175C12.5161 12.5175 13.1961 13.4375 13.1961 14.2875Z " />
    </g>
  </g>
</svg>
