<svg xmlns="http://www.w3.org/2000/svg" xmlns:xlink="http://www.w3.org/1999/xlink" width="10" height="10" viewBox="0 0 10 10" fill="none"><defs><rect id="path_0" x="0" y="0" width="10" height="9.72041772460952" /></defs><g opacity="1" transform="translate(0 -0.00013671875000031974)  rotate(0 5 4.86020886230476)"><mask id="bg-mask-0" fill="white"><use xlink:href="#path_0"></use></mask><g mask="url(#bg-mask-0)" ><path id="分组 1" fill-rule="evenodd" style="fill:#FFA600" transform="translate(0 0)  rotate(0 5 4.86020886230476)" opacity="1" d="M0.39 7.51C0.13 8.11 0 8.75 0 9.41C0 9.58 0.14 9.72 0.31 9.72C0.48 9.72 0.62 9.58 0.62 9.41C0.62 8.27 1.08 7.2 1.91 6.39C2.73 5.58 3.83 5.13 5 5.13C6.17 5.13 7.27 5.58 8.09 6.39C8.92 7.2 9.38 8.27 9.38 9.41C9.38 9.58 9.52 9.72 9.69 9.72C9.86 9.72 10 9.58 10 9.41C10 8.75 9.86 8.11 9.6 7.51C9.35 6.93 8.99 6.41 8.53 5.96C8.07 5.51 7.54 5.15 6.94 4.91C6.77 4.84 6.6 4.78 6.42 4.73C7.14 4.27 7.62 3.47 7.62 2.57C7.62 1.15 6.45 0 5 0C3.55 0 2.37 1.15 2.37 2.57C2.37 3.47 2.85 4.27 3.58 4.73C3.4 4.78 3.22 4.84 3.05 4.91C2.46 5.15 1.92 5.51 1.46 5.96C1 6.41 0.64 6.93 0.39 7.51Z M4.9975 4.5202C6.0975 4.5202 6.9975 3.6502 6.9975 2.5702C6.9975 1.4902 6.0975 0.610201 4.9975 0.610201C3.8975 0.610201 2.9975 1.4902 2.9975 2.5702C2.9975 3.6502 3.8975 4.5202 4.9975 4.5202Z " /></g></g></svg>