<svg xmlns="http://www.w3.org/2000/svg" xmlns:xlink="http://www.w3.org/1999/xlink" width="36" height="35" viewBox="0 0 36 35" fill="none"><defs><rect id="path_0" x="0" y="0" width="36" height="34.637209882570076" /></defs><g opacity="1" transform="translate(0 -0.0000014256600024964428)  rotate(0 18 17.318604941285038)"><mask id="bg-mask-0" fill="white"><use xlink:href="#path_0"></use></mask><g mask="url(#bg-mask-0)" ><path id="path 1" fill-rule="evenodd" style="fill:#025DCC" transform="translate(0 0)  rotate(0 18 17.318604941285038)" opacity="1" d="M0,11.29L0,28.52C0.01,31.9 2.74,34.63 6.11,34.64L29.89,34.64C33.26,34.63 35.99,31.9 36,28.52L36,11.29C36,9.67 35.36,8.12 34.21,6.97C33.06,5.82 31.51,5.18 29.89,5.18L23.16,5.18L25.28,1.41C25.47,1.13 25.48,0.76 25.31,0.47C25.14,0.17 24.82,-0.01 24.48,0C24.14,0.01 23.84,0.21 23.69,0.51L21.05,5.18L14.42,5.18L11.78,0.51C11.52,0.1 10.98,-0.03 10.56,0.21C10.13,0.45 9.97,0.97 10.18,1.41L12.31,5.18L6.11,5.18C2.74,5.18 0.01,7.92 0,11.29Z " /><path id="path 2" fill-rule="evenodd" style="fill:#FFFFFF" transform="translate(14.110066787744486 13.869111761603317)  rotate(0 5.3119389883544565 6.031158039808736)" opacity="1" d="M10.15,5.21L1.43,0.12C1.13,-0.04 0.77,-0.04 0.48,0.12C0.18,0.3 0,0.61 0,0.95L0,11.11C0,11.45 0.18,11.77 0.48,11.93C0.77,12.11 1.14,12.11 1.43,11.93L10.15,6.85C10.44,6.67 10.62,6.36 10.62,6.02C10.6,5.69 10.42,5.39 10.15,5.21Z " /></g></g></svg>
