<?xml version="1.0" encoding="UTF-8"?>
<svg width="18px" height="17px" viewBox="0 0 18 17" version="1.1" xmlns="http://www.w3.org/2000/svg" xmlns:xlink="http://www.w3.org/1999/xlink">
    <title>language</title>
    <defs>
        <rect id="path-1" x="0" y="0" width="18" height="16.5740528"></rect>
    </defs>
    <g id="my" stroke="none" stroke-width="1" fill="none" fill-rule="evenodd">
        <g transform="translate(-30.000000, -633.000000)" id="language">
            <g transform="translate(30.000000, 633.000000)">
                <mask id="mask-2" fill="white">
                    <use xlink:href="#path-1"></use>
                </mask>
                <g id="path"></g>
                <path d="M16.24,0 C17.21,0 17.99,0.79 18,1.75 L18,12.38 C18,13.34 17.21,14.13 16.25,14.13 L11.73,14.13 L9.48,16.38 C9.34,16.51 9.18,16.57 9,16.57 C8.82,16.57 8.66,16.51 8.52,16.38 L6.27,14.13 L1.75,14.13 C0.79,14.13 0,13.34 0,12.38 L0,1.75 C0,0.79 0.79,0 1.75,0 Z M16.2432836,1.34328358 L1.74328358,1.34328358 C1.52328358,1.34328358 1.34328358,1.53328358 1.34328358,1.74328358 L1.34328358,12.3832836 C1.34328358,12.6032836 1.53328358,12.7832836 1.74328358,12.7832836 L6.41328358,12.7832836 C6.62328358,12.7432836 6.85328358,12.8032836 7.01328358,12.9632836 L9.00328358,14.9532836 L10.9832836,12.9632836 C11.1532836,12.8032836 11.3732836,12.7432836 11.5832836,12.7832836 L16.2432836,12.7832836 C16.4732836,12.7832836 16.6432836,12.5932836 16.6432836,12.3832836 L16.6432836,1.74328358 C16.6432836,1.52328358 16.4732836,1.34328358 16.2432836,1.34328358 Z" id="group-1" fill="#212121" mask="url(#mask-2)"></path>
                <path d="M3.03788749,3.73055109 L3.03788749,10.1405511 C3.03788749,10.4905511 3.32788749,10.7805511 3.67788749,10.7805511 C4.02788749,10.7805511 4.31788749,10.4905511 4.31788749,10.1405511 L4.31788749,3.73055109 C4.29788749,3.39055109 4.01788749,3.12055109 3.67788749,3.12055109 C3.33788749,3.12055109 3.05788749,3.39055109 3.03788749,3.73055109 Z" id="path" fill="#212121" mask="url(#mask-2)"></path>
                <path d="M7.45047072,5.15614237 C7.79047072,5.15614237 8.10047072,5.17614237 8.37047072,5.23614237 C8.64047072,5.28614237 8.88047072,5.39614237 9.06047072,5.53614237 C9.26047072,5.68614237 9.40047072,5.87614237 9.51047072,6.11614237 C9.60047072,6.35614237 9.65047072,6.64614237 9.65047072,6.98614237 L9.65047072,10.2461424 C9.65047072,10.5961424 9.37047072,10.8661424 9.03047072,10.8661424 C8.69047072,10.8661424 8.41047072,10.5961424 8.41047072,10.2461424 L8.41047072,10.0561424 C8.25047072,10.1761424 8.07047072,10.2861424 7.89047072,10.3761424 C7.61047072,10.5061424 7.32047072,10.5761424 6.99047072,10.5761424 C6.73047072,10.5761424 6.49047072,10.5361424 6.28047072,10.4561424 C6.08047072,10.3861424 5.90047072,10.2561424 5.75047072,10.1161424 C5.61047072,9.97614237 5.50047072,9.78614237 5.42047072,9.58614237 C5.35047072,9.38614237 5.31047072,9.16614237 5.31047072,8.92614237 C5.31047072,8.61614237 5.37047072,8.34614237 5.48047072,8.13614237 C5.58047072,7.91614237 5.73047072,7.72614237 5.92047072,7.59614237 C6.11047072,7.45614237 6.33047072,7.36614237 6.58047072,7.29614237 C6.82047072,7.22614237 7.09047072,7.18614237 7.38047072,7.14614237 L8.36047072,7.05614237 L8.36047072,6.96614237 C8.36047072,6.82614237 8.34047072,6.70614237 8.30047072,6.62614237 C8.26047072,6.53614237 8.20047072,6.47614237 8.13047072,6.42614237 C8.06047072,6.37614237 7.97047072,6.33614237 7.85047072,6.31614237 C7.73047072,6.28614237 7.58047072,6.27614237 7.43047072,6.27614237 C7.27047072,6.27614237 7.15047072,6.28614237 7.04047072,6.31614237 C6.93047072,6.33614237 6.84047072,6.37614237 6.76047072,6.41614237 C6.68047072,6.45614237 6.62047072,6.50614237 6.57047072,6.56614237 L6.56047072,6.57614237 C6.50047072,6.85614237 6.24047072,7.07614237 5.93047072,7.07614237 C5.58047072,7.07614237 5.29047072,6.78614237 5.29047072,6.43614237 C5.29047072,6.28614237 5.35047072,6.13614237 5.44047072,6.02614237 C5.51047072,5.92614237 5.59047072,5.82614237 5.68047072,5.73614237 C5.80047072,5.63614237 5.94047072,5.52614237 6.11047072,5.44614237 C6.27047072,5.36614237 6.47047072,5.28614237 6.68047072,5.23614237 C6.90047072,5.18614237 7.16047072,5.15614237 7.45047072,5.15614237 Z M8.37375431,8.08036739 L7.83375431,8.13036739 C7.62375431,8.15036739 7.44375431,8.17036739 7.28375431,8.21036739 C7.14375431,8.25036739 7.01375431,8.30036739 6.91375431,8.36036739 C6.82375431,8.42036739 6.75375431,8.49036739 6.70375431,8.58036739 C6.65375431,8.66036739 6.63375431,8.77036739 6.63375431,8.90036739 C6.63375431,9.10036739 6.67375431,9.26036739 6.77375431,9.33036739 C6.89375431,9.41036739 7.04375431,9.45036739 7.26375431,9.45036739 C7.34375431,9.45036739 7.43375431,9.44036739 7.52375431,9.41036739 C7.61375431,9.38036739 7.70375431,9.34036739 7.81375431,9.29036739 C7.90375431,9.24036739 8.00375431,9.18036739 8.11375431,9.10036739 C8.19375431,9.05036739 8.27375431,8.98036739 8.36375431,8.92036739 L8.37375431,8.92036739 L8.37375431,8.08036739 Z M10.7566016,5.76547646 L10.7566016,5.76547646 L10.7566016,5.76547646 Z M10.7566016,5.76547646 L10.7566016,5.76547646 L10.7566016,5.76547646 Z M12.6666016,6.55547646 C12.7866016,6.48547646 12.8866016,6.43547646 12.9966016,6.39547646 C13.1066016,6.36547646 13.1966016,6.34547646 13.2766016,6.34547646 C13.4166016,6.34547646 13.5166016,6.36547646 13.5866016,6.39547646 C13.6466016,6.42547646 13.6966016,6.47547646 13.7466016,6.56547646 C13.7866016,6.65547646 13.8166016,6.76547646 13.8266016,6.92547646 C13.8366016,7.08547646 13.8466016,7.28547646 13.8466016,7.52547646 L13.8466016,10.2354765 C13.8466016,10.5954765 14.1366016,10.8854765 14.4866016,10.8854765 C14.8366016,10.8854765 15.1266016,10.5954765 15.1266016,10.2354765 L15.1266016,7.04547646 C15.1266016,6.75547646 15.1066016,6.49547646 15.0566016,6.27547646 C15.0166016,6.03547646 14.9166016,5.82547646 14.7966016,5.66547646 C14.6766016,5.49547646 14.5066016,5.36547646 14.2966016,5.27547646 C14.1066016,5.19547646 13.8566016,5.15547646 13.5666016,5.15547646 C13.4066016,5.15547646 13.2366016,5.17547646 13.0666016,5.22547646 C12.9066016,5.27547646 12.7466016,5.34547646 12.5966016,5.41547646 C12.4366016,5.49547646 12.3066016,5.58547646 12.1666016,5.69547646 L12.0366016,5.78547646 L12.0366016,5.67547646 L12.0366016,5.76547646 C12.0366016,5.41547646 11.7466016,5.13547646 11.3966016,5.13547646 C11.0466016,5.13547646 10.7566016,5.41547646 10.7566016,5.76547646 L10.7566016,10.2354765 C10.7566016,10.5954765 11.0466016,10.8854765 11.3966016,10.8854765 C11.7466016,10.8854765 12.0366016,10.5954765 12.0366016,10.2354765 L12.0366016,7.01547646 C12.1266016,6.93547646 12.2266016,6.86547646 12.3266016,6.77547646 C12.4366016,6.69547646 12.5566016,6.61547646 12.6666016,6.55547646 Z M10.7566016,5.67547646 L10.7566016,5.76547646 M10.7566016,5.76547646 L10.7566016,5.67547646" id="group-2" fill="#212121" mask="url(#mask-2)"></path>
            </g>
        </g>
    </g>
</svg>
