<svg xmlns="http://www.w3.org/2000/svg" xmlns:xlink="http://www.w3.org/1999/xlink" width="18" height="17" viewBox="0 0 18 17" fill="none"><defs><rect id="path_0" x="0" y="0" width="18" height="16.57405281285878" /></defs><g opacity="1" transform="translate(0 0)  rotate(0 9 8.28702640642939)"><mask id="bg-mask-0" fill="white"><use xlink:href="#path_0"></use></mask><g mask="url(#bg-mask-0)" ><path id="分组 1" fill-rule="evenodd" style="fill:#212121" transform="translate(0 0)  rotate(0 9 8.28702640642939)" opacity="1" d="M1.75 14.13L6.27 14.13L8.52 16.38C8.66 16.51 8.82 16.57 9 16.57C9.18 16.57 9.34 16.51 9.48 16.38L11.73 14.13L16.25 14.13C17.21 14.13 18 13.34 18 12.38L18 1.75C17.99 0.79 17.21 0 16.24 0L1.75 0C0.79 0 0 0.79 0 1.75L0 12.38C0 13.34 0.79 14.13 1.75 14.13Z M10.9833 12.9633C11.1533 12.8033 11.3733 12.7433 11.5833 12.7833L16.2433 12.7833C16.4733 12.7833 16.6433 12.5933 16.6433 12.3833L16.6433 1.74328C16.6433 1.52328 16.4733 1.34328 16.2433 1.34328L1.74328 1.34328C1.52328 1.34328 1.34328 1.53328 1.34328 1.74328L1.34328 12.3833C1.34328 12.6033 1.53328 12.7833 1.74328 12.7833L6.41328 12.7833C6.62328 12.7433 6.85328 12.8033 7.01328 12.9633L9.00328 14.9533L10.9833 12.9633Z " /><path id="路径 3" fill-rule="evenodd" style="fill:#212121" transform="translate(3.03788748564868 3.120551090700345)  rotate(0 0.6406429391504016 3.828358208955225)" opacity="1" d="M0,0.61L0,7.02C0,7.37 0.29,7.66 0.64,7.66C0.99,7.66 1.28,7.37 1.28,7.02L1.28,0.61C1.26,0.27 0.98,0 0.64,0C0.3,0 0.02,0.27 0,0.61Z " /><path id="分组 2" fill-rule="evenodd" style="fill:#212121" transform="translate(5.2904707233065436 5.135476463834675)  rotate(0 4.918484500574051 2.8725602755453505)" opacity="1" d="M3.01 1.49067C3.05 1.57067 3.07 1.69067 3.07 1.83067L3.07 1.92067L2.09 2.01067C1.8 2.05067 1.53 2.09067 1.29 2.16067C1.04 2.23067 0.82 2.32067 0.63 2.46067C0.44 2.59067 0.29 2.78067 0.19 3.00067C0.08 3.21067 0.02 3.48067 0.02 3.79067C0.02 4.03067 0.06 4.25067 0.13 4.45067C0.21 4.65067 0.32 4.84067 0.46 4.98067C0.61 5.12067 0.79 5.25067 0.99 5.32067C1.2 5.40067 1.44 5.44067 1.7 5.44067C2.03 5.44067 2.32 5.37067 2.6 5.24067C2.78 5.15067 2.96 5.04067 3.12 4.92067L3.12 5.11067C3.12 5.46067 3.4 5.73067 3.74 5.73067C4.08 5.73067 4.36 5.46067 4.36 5.11067L4.36 1.85067C4.36 1.51067 4.31 1.22067 4.22 0.980666C4.11 0.740666 3.97 0.550666 3.77 0.400666C3.59 0.260666 3.35 0.150666 3.08 0.100666C2.81 0.0406659 2.5 0.0206659 2.16 0.0206659C1.87 0.0206659 1.61 0.0506659 1.39 0.100666C1.18 0.150666 0.98 0.230666 0.82 0.310666C0.65 0.390666 0.51 0.500666 0.39 0.600666C0.3 0.690666 0.22 0.790666 0.15 0.890666C0.06 1.00067 0 1.15067 0 1.30067C0 1.65067 0.29 1.94067 0.64 1.94067C0.95 1.94067 1.21 1.72067 1.27 1.44067L1.28 1.43067C1.33 1.37067 1.39 1.32067 1.47 1.28067C1.55 1.24067 1.64 1.20067 1.75 1.18067C1.86 1.15067 1.98 1.14067 2.14 1.14067C2.29 1.14067 2.44 1.15067 2.56 1.18067C2.68 1.20067 2.77 1.24067 2.84 1.29067C2.91 1.34067 2.97 1.40067 3.01 1.49067Z M3.08328 3.78489L3.08328 2.94489L2.54328 2.99489C2.33328 3.01489 2.15328 3.03489 1.99328 3.07489C1.85328 3.11489 1.72328 3.16489 1.62328 3.22489C1.53328 3.28489 1.46328 3.35489 1.41328 3.44489C1.36328 3.52489 1.34328 3.63489 1.34328 3.76489C1.34328 3.96489 1.38328 4.12489 1.48328 4.19489C1.60328 4.27489 1.75328 4.31489 1.97328 4.31489C2.05328 4.31489 2.14328 4.30489 2.23328 4.27489C2.32328 4.24489 2.41328 4.20489 2.52328 4.15489C2.61328 4.10489 2.71328 4.04489 2.82328 3.96489C2.90328 3.91489 2.98328 3.84489 3.07328 3.78489L3.08328 3.78489Z M5.46613 0.63C5.46613 0.63 5.46613 0.63 5.46613 0.63Z M5.46613 0.63C5.46613 0.63 5.46613 0.63 5.46613 0.63Z M5.46613 0.63Z M7.70613 1.26C7.81613 1.23 7.90613 1.21 7.98613 1.21C8.12613 1.21 8.22613 1.23 8.29613 1.26C8.35613 1.29 8.40613 1.34 8.45613 1.43C8.49613 1.52 8.52613 1.63 8.53613 1.79C8.54613 1.95 8.55613 2.15 8.55613 2.39L8.55613 5.1C8.55613 5.46 8.84613 5.75 9.19613 5.75C9.54613 5.75 9.83613 5.46 9.83613 5.1L9.83613 1.91C9.83613 1.62 9.81613 1.36 9.76613 1.14C9.72613 0.9 9.62613 0.69 9.50613 0.53C9.38613 0.36 9.21613 0.23 9.00613 0.14C8.81613 0.06 8.56613 0.02 8.27613 0.02C8.11613 0.02 7.94613 0.04 7.77613 0.09C7.61613 0.14 7.45613 0.21 7.30613 0.28C7.14613 0.36 7.01613 0.45 6.87613 0.56L6.74613 0.65L6.74613 0.54L6.74613 0.63C6.74613 0.28 6.45613 0 6.10613 0C5.75613 0 5.46613 0.28 5.46613 0.63L5.46613 5.1C5.46613 5.46 5.75613 5.75 6.10613 5.75C6.45613 5.75 6.74613 5.46 6.74613 5.1L6.74613 1.88C6.83613 1.8 6.93613 1.73 7.03613 1.64C7.14613 1.56 7.26613 1.48 7.37613 1.42C7.49613 1.35 7.59613 1.3 7.70613 1.26Z M5.46613 0.54L5.46613 0.63 M5.46613 0.63L5.46613 0.54 " /></g></g></svg>