<?xml version="1.0" encoding="UTF-8"?>
<svg width="20px" height="21px" viewBox="0 0 20 21" version="1.1" xmlns="http://www.w3.org/2000/svg" xmlns:xlink="http://www.w3.org/1999/xlink">
    <title>分组 1</title>
    <defs>
        <rect id="path-1" x="0" y="0" width="20" height="20"></rect>
    </defs>
    <g id="效果图（light--English）" stroke="none" stroke-width="1" fill="none" fill-rule="evenodd">
        <g id="最新（选中）" transform="translate(-6.000000, 0.500000)">
            <g id="分组-1" transform="translate(6.000000, 0.000000)">
                <mask id="mask-2" fill="white">
                    <use xlink:href="#path-1"></use>
                </mask>
                <g id="路径"></g>
                <path d="M0,20 L20,20 L20,0 L0,0 L0,20 Z" id="路径" mask="url(#mask-2)"></path>
                <path d="M14.1666667,1.66666667 C14.6266667,1.66666667 14.9966667,2.03666667 14.9966667,2.49666667 L14.9966667,12.4966667 L18.3366667,12.4966667 L18.3366667,15.8366667 C18.3366667,17.2166667 17.2166667,18.3366667 15.8366667,18.3366667 L4.16666667,18.3366667 C2.78666667,18.3366667 1.66666667,17.2166667 1.66666667,15.8366667 L1.66666667,2.49666667 C1.66666667,2.03666667 2.03666667,1.66666667 2.49666667,1.66666667 Z M16.67,14.1666667 L15,14.1666667 L15,15.8366667 C15,16.2966667 15.37,16.6666667 15.83,16.6666667 C16.29,16.6666667 16.67,16.2966667 16.67,15.8366667 L16.67,14.1666667 Z M9.17,12.5 L5,12.5 L5,14.17 L9.17,14.17 L9.17,12.5 Z M11.67,9.16666667 L5,9.16666667 L5,10.8366667 L11.67,10.8366667 L11.67,9.16666667 Z M11.67,5.83333333 L5,5.83333333 L5,7.50333333 L11.67,7.50333333 L11.67,5.83333333 Z" fill="#FFA600" mask="url(#mask-2)"></path>
            </g>
        </g>
    </g>
</svg>