<?xml version="1.0" encoding="UTF-8"?>
<svg width="19px" height="19px" viewBox="0 0 19 19" version="1.1" xmlns="http://www.w3.org/2000/svg" xmlns:xlink="http://www.w3.org/1999/xlink">
    <title>group</title>
    <g id="page-1" stroke="none" stroke-width="1" fill="none" fill-rule="evenodd">
        <g id="group" fill="#FFA600">
            <path d="M14.94,12.14 L14.94,0.93 C14.94,0.42 14.52,0 14,0 L0.93,0 C0.42,0 0,0.42 0,0.93 L0,15.87 C0,17.42 1.25,18.67 2.8,18.67 L15.87,18.67 C17.42,18.67 18.67,17.42 18.67,15.87 L18.67,12.14 L14.94,12.14 Z M14.936,15.8725 C14.936,16.3825 15.356,16.8025 15.866,16.8025 C16.386,16.8025 16.806,16.3825 16.806,15.8725 L16.806,14.0025 L14.936,14.0025 L14.936,15.8725 Z M3.734,6.5375 L11.204,6.5375 L11.204,4.6675 L3.734,4.6675 L3.734,6.5375 Z M3.734,10.2715 L11.204,10.2715 L11.204,8.4015 L3.734,8.4015 L3.734,10.2715 Z M3.734,14.0055 L8.404,14.0055 L8.404,12.1355 L3.734,12.1355 L3.734,14.0055 Z" id="group-1"></path>
        </g>
    </g>
</svg>
