<svg xmlns="http://www.w3.org/2000/svg" xmlns:xlink="http://www.w3.org/1999/xlink" width="20" height="20" viewBox="0 0 20 20" fill="none"><g opacity="1" transform="translate(1 1)  rotate(0 9 9)"><g opacity="1" transform="translate(0 0)  rotate(0 9 9)"><path  id="path-1_00000121273626731994413610000012344357946387267511_" style="stroke:#424242; stroke-width:1; stroke-opacity:1; stroke-dasharray:0 0" transform="translate(0 0)  rotate(0 9 9)" d="M14.4,11.7L14.4,0.9C14.4,0.4 14,0 13.5,0L0.9,0C0.4,0 0,0.4 0,0.9L0,15.3C0,16.8 1.2,18 2.7,18L15.3,18C16.8,18 18,16.8 18,15.3L18,11.7L14.4,11.7Z " /></g><g opacity="1" transform="translate(14.399999999999999 13.499999999999998)  rotate(0 0.9000000000000004 1.3500000000000005)"><path id="path-3_00000172427612968708610210000001216837415901934503_" fill-rule="evenodd" style="fill:#424242" transform="translate(0 0)  rotate(0 0.9000000000000004 1.3500000000000005)" opacity="1" d="M0.9,2.7C1.4,2.7 1.8,2.3 1.8,1.8L1.8,0L0,0L0,1.8C0,2.3 0.4,2.7 0.9,2.7Z " /></g><g opacity="1" transform="translate(3.6 4.5)  rotate(0 3.6000000000000005 0.8999999999999999)"><path id="path-5_00000114762422323555954220000008150015360647975303_" fill-rule="evenodd" style="fill:#424242" transform="translate(0 0)  rotate(0 3.6000000000000005 0.8999999999999999)" opacity="1" d="M7.2,1.8L7.2,0L0,0L0,1.8L7.2,1.8Z " /></g><g opacity="1" transform="translate(3.6 8.1)  rotate(0 3.6000000000000005 0.9000000000000004)"><path id="path-7_00000091718659936774305730000011019183885743064501_" fill-rule="evenodd" style="fill:#424242" transform="translate(0 0)  rotate(0 3.6000000000000005 0.9000000000000004)" opacity="1" d="M7.2,1.8L7.2,0L0,0L0,1.8L7.2,1.8Z " /></g><g opacity="1" transform="translate(3.6 11.7)  rotate(0 2.25 0.9000000000000004)"><path id="path-9_00000173146464091482841520000004350274227859389630_" fill-rule="evenodd" style="fill:#424242" transform="translate(0 0)  rotate(0 2.25 0.9000000000000004)" opacity="1" d="M4.5,1.8L4.5,0L0,0L0,1.8L4.5,1.8Z " /></g></g></svg>