<svg xmlns="http://www.w3.org/2000/svg" xmlns:xlink="http://www.w3.org/1999/xlink" width="20" height="20" viewBox="0 0 20 20">
  <defs>
    <rect id="path_0" x="0" y="0" width="20" height="20" />
  </defs>
  <g opacity="1" transform="translate(0 0)  rotate(0 10 10)">
    <mask id="bg-mask-0" fill="white">
      <use xlink:href="#path_0"></use>
    </mask>
    <g mask="url(#bg-mask-0)" >
      <path id="follow 1" fill-rule="evenodd" fill="" transform="translate(1.6666666666666672 1.666666666666667)  rotate(0 8.333333333333336 8.333333333333336)" opacity="1" d="M0 0.83L0 14.17C0 15.55 1.12 16.67 2.5 16.67L14.17 16.67C15.55 16.67 16.67 15.55 16.67 14.17L16.67 10.83L13.33 10.83L13.33 0.83C13.33 0.37 12.96 0 12.5 0L0.83 0C0.37 0 0 0.37 0 0.83Z M13.3333 14.17C13.3333 14.63 13.7033 15 14.1633 15C14.6233 15 15.0033 14.63 15.0033 14.17L15.0033 12.5L13.3333 12.5L13.3333 14.17Z M3.33333 5.83667L10.0033 5.83667L10.0033 4.16667L3.33333 4.16667L3.33333 5.83667Z M3.33333 9.17L10.0033 9.17L10.0033 7.5L3.33333 7.5L3.33333 9.17Z M3.33333 12.5033L7.50333 12.5033L7.50333 10.8333L3.33333 10.8333L3.33333 12.5033Z " />
    </g>
  </g>
</svg>
