<svg xmlns="http://www.w3.org/2000/svg" xmlns:xlink="http://www.w3.org/1999/xlink" width="18" height="17" viewBox="0 0 18 17" fill="none"><path id="路径 1" fill-rule="evenodd" style="fill:#000000" transform="translate(0 -0.0009765625)  rotate(0 9 8.220903561308743)" opacity="1" d="M17.08,7.28L3.12,7.28L8.89,1.54C9.23,1.18 9.22,0.62 8.87,0.27C8.52,-0.08 7.96,-0.09 7.6,0.25L0.27,7.55C-0.09,7.91 -0.09,8.49 0.27,8.85L7.6,16.17C7.95,16.53 8.53,16.53 8.89,16.17C9.25,15.81 9.25,15.24 8.89,14.88L3.12,9.11L17.08,9.11C17.41,9.11 17.71,8.94 17.88,8.66C18.04,8.37 18.04,8.02 17.88,7.74C17.71,7.46 17.41,7.28 17.08,7.28Z " /></svg>