<svg xmlns="http://www.w3.org/2000/svg" xmlns:xlink="http://www.w3.org/1999/xlink" width="16" height="16" viewBox="0 0 16 16" fill="none"><defs><rect id="path_0" x="0" y="0" width="16" height="16" /></defs><g opacity="1" transform="translate(0 0)  rotate(0 8 8)"><mask id="bg-mask-0" fill="white"><use xlink:href="#path_0"></use></mask><g mask="url(#bg-mask-0)" ><path id="group 1" fill-rule="evenodd" style="fill:#636363" transform="translate(1.3333292564920798 2.00006493544852)  rotate(0 6.666335582733154 6.161634198942406)" opacity="1" d="M1.17 1.16995C-0.34 2.67995 -0.39 5.08995 1.01 6.65995L6.67 12.3199L12.32 6.65995C13.72 5.08995 13.67 2.67995 12.16 1.16995C10.65 -0.340052 8.23 -0.390052 6.67 1.01995C5.1 -0.390052 2.68 -0.340052 1.17 1.16995Z M7.55336 2.01327L6.66336 2.81327L5.77337 2.01327C4.72336 1.07327 3.11336 1.11327 2.11336 2.11327C1.12336 3.10327 1.07336 4.69327 1.98336 5.75327L6.66336 10.4333L11.3434 5.75327C12.2634 4.69327 12.2134 3.11327 11.2134 2.11327C10.2134 1.11327 8.60336 1.07327 7.55336 2.01327Z " /></g></g></svg>
