<?xml version="1.0" encoding="UTF-8"?>
<svg width="14px" height="13px" viewBox="0 0 14 13" version="1.1" xmlns="http://www.w3.org/2000/svg" xmlns:xlink="http://www.w3.org/1999/xlink">
    <title>group 1</title>
    <g id="effect（light--English）" stroke="none" stroke-width="1" fill="none" fill-rule="evenodd">
        <path d="M7.00332926,1.52001341 C8.56332926,0.110013406 10.9833293,0.160013406 12.4933293,1.67001341 C14.0033293,3.18001341 14.0533293,5.59001341 12.6533293,7.16001341 L7.00332926,12.8200134 L1.34332926,7.16001341 C-0.0566707435,5.59001341 -0.00667074351,3.18001341 1.50332926,1.67001341 C3.01332926,0.160013406 5.43332926,0.110013406 7.00332926,1.52001341 Z M7.88669402,2.51333347 L6.99669402,3.31333347 L6.10669402,2.51333347 C5.05669402,1.57333347 3.44669402,1.61333347 2.44669402,2.61333347 C1.45669402,3.60333347 1.40669402,5.19333347 2.31669402,6.25333347 L6.99669402,10.9333335 L11.676694,6.25333347 C12.596694,5.19333347 12.546694,3.61333347 11.546694,2.61333347 C10.546694,1.61333347 8.93669402,1.57333347 7.88669402,2.51333347 Z" id="group-1" fill="#636363"></path>
    </g>
</svg>
