<svg xmlns="http://www.w3.org/2000/svg" xmlns:xlink="http://www.w3.org/1999/xlink" width="51" height="57" viewBox="0 0 51 57" fill="none"><g opacity="1" transform="translate(0.0001220703125 0.00244140625)  rotate(0 25 28.14321037093282)"><path id="路径 1" fill-rule="evenodd" style="fill:#FFA600" transform="translate(0 0)  rotate(0 25 28.14321037093282)" opacity="1" d="M27.52,55.61L47.48,44.05C49.05,43.15 50.01,41.49 50,39.68L50,16.6C50,14.8 49.04,13.14 47.48,12.24L27.52,0.68C25.96,-0.23 24.04,-0.23 22.48,0.68L2.52,12.24C0.95,13.13 -0.01,14.8 0,16.6L0,39.68C-0.01,41.49 0.95,43.15 2.52,44.05L22.48,55.61C24.04,56.51 25.96,56.51 27.52,55.61Z " /><path id="路径 2" fill-rule="evenodd" style="fill:#FFFFFF" transform="translate(9.630484877974554 11.206046473462328)  rotate(0 15.310552969711242 19.27160394376592)" opacity="1" d="M12.78,0.68L2.52,6.62C0.95,7.51 -0.01,9.18 0,10.98L0,22.85C-0.01,24.66 0.95,26.32 2.52,27.22L12.78,33.16C14.33,34.06 16.25,34.06 17.81,33.16L19.85,31.98L27.75,38.54L26.02,28.4L28.11,27.22C29.67,26.32 30.63,24.66 30.62,22.85L30.58,22.85L30.58,10.98C30.59,9.18 29.63,7.51 28.07,6.62L17.81,0.68C16.25,-0.23 14.33,-0.23 12.78,0.68Z " /></g></svg>