<?xml version="1.0" encoding="UTF-8"?>
<svg width="18px" height="19px" viewBox="0 0 18 19" version="1.1" xmlns="http://www.w3.org/2000/svg" xmlns:xlink="http://www.w3.org/1999/xlink">
    <title>log out</title>
    <defs>
        <rect id="path-1" x="0" y="0" width="18" height="18.7361695"></rect>
    </defs>
    <g id="我的" stroke="none" stroke-width="1" fill="none" fill-rule="evenodd">
        <g transform="translate(-30.000000, -789.000000)" id="log-out">
            <g transform="translate(30.000000, 789.130000)">
                <mask id="mask-2" fill="white">
                    <use xlink:href="#path-1"></use>
                </mask>
                <g id="路径"></g>
                <g id="分组-1" mask="url(#mask-2)" fill="#212121">
                    <path d="M16.32,9.73439067 C16.32,13.7843907 13.04,17.0543907 9,17.0543907 C4.96,17.0543907 1.68,13.7843907 1.68,9.73439067 C1.68,7.40439067 2.78,5.25439067 4.61,3.87439067 C4.98,3.60439067 5.05,3.07439067 4.77,2.70439067 C4.49,2.33439067 3.97,2.25439067 3.6,2.53439067 C1.35,4.22439067 0,6.87439067 0,9.73439067 C0,14.7043907 4.03,18.7343907 9,18.7343907 C13.97,18.7343907 18,14.7043907 18,9.73439067 C18,6.86439067 16.65,4.22439067 14.4,2.53439067 C14.02,2.25439067 13.5,2.32439067 13.22,2.70439067 C12.94,3.07439067 13.02,3.59439067 13.39,3.87439067 C15.22,5.25439067 16.32,7.40439067 16.32,9.73439067 Z" id="路径"></path>
                    <path d="M9.84101695,0.84 C9.84101695,0.38 9.46101695,0 9.00101695,0 C8.54101695,0 8.16101695,0.38 8.16101695,0.84 L8.16101695,6.73 C8.16101695,7.19 8.54101695,7.57 9.00101695,7.57 C9.46101695,7.57 9.84101695,7.19 9.84101695,6.73 L9.84101695,0.84 Z" id="路径"></path>
                </g>
            </g>
        </g>
    </g>
</svg>