<svg xmlns="http://www.w3.org/2000/svg" xmlns:xlink="http://www.w3.org/1999/xlink" width="18" height="19" viewBox="0 0 18 19" fill="none"><defs><rect id="path_0" x="0" y="0" width="18" height="18.736169491525413" /></defs><g opacity="1" transform="translate(0 -0.0000048828125045474735)  rotate(0 9 9.368084745762706)"><mask id="bg-mask-0" fill="white"><use xlink:href="#path_0"></use></mask><g mask="url(#bg-mask-0)" ><g opacity="1" transform="translate(0 0)  rotate(0 9 9.368084745762706)"><path id="路径 1" fill-rule="evenodd" style="fill:#212121" transform="translate(0 2.3643906715414746)  rotate(0 9 8.185889409991969)" opacity="1" d="M18,7.37C18,4.5 16.65,1.86 14.4,0.17C14.02,-0.11 13.5,-0.04 13.22,0.34C12.94,0.71 13.02,1.23 13.39,1.51C15.22,2.89 16.32,5.04 16.32,7.37C16.32,11.42 13.04,14.69 9,14.69C4.96,14.69 1.68,11.42 1.68,7.37C1.68,5.04 2.78,2.89 4.61,1.51C4.98,1.24 5.05,0.71 4.77,0.34C4.49,-0.03 3.97,-0.11 3.6,0.17C1.35,1.86 0,4.51 0,7.37C0,12.34 4.03,16.37 9,16.37C13.97,16.37 18,12.34 18,7.37Z " /><path id="路径 2" fill-rule="evenodd" style="fill:#212121" transform="translate(8.161016949152543 0)  rotate(0 0.8389830508474576 3.7849576271186423)" opacity="1" d="M1.68,0.84C1.68,0.38 1.3,0 0.84,0C0.38,0 0,0.38 0,0.84L0,6.73C0,7.19 0.38,7.57 0.84,7.57C1.3,7.57 1.68,7.19 1.68,6.73L1.68,0.84Z " /></g></g></g></svg>