<svg xmlns="http://www.w3.org/2000/svg" xmlns:xlink="http://www.w3.org/1999/xlink" width="17" height="12" viewBox="0 0 17 12" fill="none"><defs><rect id="path_0" x="0" y="0" width="17" height="11.329471955748138" /></defs><g opacity="1" transform="translate(0 -0.0000020911552951474732)  rotate(0 8.5 5.664735977874069)"><g opacity="1" transform="translate(0 0)  rotate(0 8.5 5.664735977874069)"><mask id="bg-mask-0" fill="white"><use xlink:href="#path_0"></use></mask><g mask="url(#bg-mask-0)" ><path id="分组 1" fill-rule="evenodd" style="fill:#636363" transform="translate(0 0)  rotate(0 8.5 5.664735977874069)" opacity="1" d="M1.41057 5.66561C2.50057 6.97561 5.38057 10.0256 8.51057 10.0256C11.6406 10.0256 14.5006 6.97561 15.6006 5.66561C14.5006 4.35561 11.6506 1.30561 8.51057 1.30561C5.36057 1.30561 2.50057 4.35561 1.41057 5.66561Z M0.19 5.13C-0.06 5.44 -0.06 5.89 0.19 6.2C1.3 7.61 4.6 11.33 8.51 11.33C12.41 11.33 15.7 7.61 16.81 6.2C17.06 5.89 17.06 5.44 16.81 5.13C15.7 3.72 12.4 0 8.51 0C4.6 0 1.3 3.72 0.19 5.13Z M7.59232 4.73868C7.35232 4.98868 7.22232 5.31868 7.23232 5.66868C7.23232 6.19868 7.55232 6.67868 8.04232 6.87868C8.54232 7.07868 9.10232 6.96868 9.48232 6.58868C9.85232 6.19868 9.95232 5.62868 9.74232 5.14868C9.53232 4.65868 9.04232 4.34868 8.51232 4.35868C8.16232 4.35868 7.83232 4.49868 7.59232 4.73868Z M6.14128 4.67926C5.75128 5.64926 5.97128 6.76926 6.70128 7.52926C7.42128 8.26926 8.52128 8.48926 9.47128 8.07926C10.4413 7.66926 11.0613 6.71926 11.0613 5.66926C11.0713 4.97926 10.8013 4.31926 10.3313 3.82926C9.85128 3.33926 9.19128 3.05926 8.51128 3.04926C7.46128 3.05926 6.52128 3.69926 6.14128 4.67926Z " /></g></g></g></svg>