<svg xmlns="http://www.w3.org/2000/svg" xmlns:xlink="http://www.w3.org/1999/xlink" width="19" height="22" viewBox="0 0 19 22" fill="none">
  <g opacity="1" transform="translate(0 0)  rotate(0 9.5 10.687500000000004)" stroke="#000">
    <path  id="path 2" style="stroke-width:1; stroke-opacity:1; stroke-dasharray:0 0" transform="translate(0 15.437500000000004)  rotate(0 9.5 2.968750000000001)" d="M19,4.24C19,1.9 16.34,0 13.06,0L5.94,0C2.66,0 0,1.9 0,4.24L0,5.94L19,5.94L19,4.24Z " />
    <g opacity="1" transform="translate(2.375 0)  rotate(0 7.125000000000002 7.125000000000003)">
      <path  id="path 3" style="stroke-width:1; stroke-opacity:1; stroke-dasharray:0 0" transform="translate(0 0)  rotate(0 7.125000000000002 7.125000000000003)" d="M14.25,7.13C14.25,3.19 11.06,0 7.13,0C3.19,0 0,3.19 0,7.13C0,11.06 3.19,14.25 7.13,14.25C11.06,14.25 14.25,11.06 14.25,7.13Z " />
      <path  id="line 1" style="stroke-width:1.8; stroke-opacity:1; stroke-dasharray:0 0" transform="translate(5.04375 5.94)  rotate(0 0.0004940395306474166 1.249999902369995)" d="M0,0L0,2.5 " />
      <path  id="line 1" style="stroke-width:1.8; stroke-opacity:1; stroke-dasharray:0 0" transform="translate(9.79375 5.94)  rotate(0 0.0004940395306478607 1.249999902369995)" d="M0,0L0,2.5 " />
    </g>
  </g>
</svg>
