<svg xmlns="http://www.w3.org/2000/svg" xmlns:xlink="http://www.w3.org/1999/xlink" width="15" height="3" viewBox="0 0 15 3" fill="none"><path id="group 1" fill-rule="evenodd" style="fill:#B5B5B5" transform="translate(0 0)  rotate(0 7.499999999999983 1.5000000000000002)" opacity="1" d="M1.5 0C0.68 0 0 0.67 0 1.5C0 2.33 0.68 3 1.5 3C2.32 3 3 2.33 3 1.5C3 0.68 2.32 0 1.5 0Z M6 1.5C6 2.33 6.68 3 7.5 3C8.33 3 9 2.33 9 1.5C9 0.67 8.33 0 7.5 0C6.68 0 6 0.68 6 1.5Z M12 1.5C12 2.33 12.67 3 13.5 3C14.33 3 15 2.33 15 1.5C15 0.67 14.33 0 13.5 0C12.67 0 12 0.68 12 1.5Z " /></svg>
