<svg xmlns="http://www.w3.org/2000/svg" xmlns:xlink="http://www.w3.org/1999/xlink" width="20" height="4" viewBox="0 0 20 4" fill="none"><path id="分组 1" fill-rule="evenodd" style="fill:#424242" transform="translate(0 0)  rotate(0 9.999999999999982 2)" opacity="1" d="M2 0C0.9 0 0 0.9 0 2C0 3.1 0.9 4 2 4C3.1 4 4 3.1 4 2C4 0.9 3.1 0 2 0Z M8 2C8 3.1 8.9 4 10 4C11.1 4 12 3.1 12 2C12 0.9 11.1 0 10 0C8.9 0 8 0.9 8 2Z M16 2C16 3.1 16.9 4 18 4C19.1 4 20 3.1 20 2C20 0.9 19.1 0 18 0C16.9 0 16 0.9 16 2Z " /></svg>