<?xml version="1.0" standalone="no"?>
<!DOCTYPE svg PUBLIC "-//W3C//DTD SVG 1.1//EN" "http://www.w3.org/Graphics/SVG/1.1/DTD/svg11.dtd">
<svg fill="" t="1676175188772" class="icon" viewBox="0 0 1024 1024" version="1.1" xmlns="http://www.w3.org/2000/svg" p-id="3923" xmlns:xlink="http://www.w3.org/1999/xlink" width="20" height="20">
  <path d="M490.5 80C730.468 80 925 260.737 925 483.687c0 222.95-194.532 403.687-434.5 403.687-41.772 0-82.168-5.476-120.4-15.7l-142.159 76.554c-15.278 8.228-34.353 2.547-42.605-12.69a31.291 31.291 0 0 1-3.625-11.823L164.61 750.692C97.014 679.531 56 586.06 56 483.687 56 260.737 250.532 80 490.5 80z m0 56.612c-209.478 0-377.731 156.321-377.731 347.075 0 84.09 32.637 163.56 91.27 226.18l1.784 1.893a56.544 56.544 0 0 1 15.217 32.764l0.065 0.615 13.366 135.234 108.656-58.511a56.909 56.909 0 0 1 41.083-5.023l0.592 0.155c34.02 9.097 69.491 13.768 105.698 13.768 209.478 0 377.731-156.321 377.731-347.075S699.978 136.612 490.5 136.612zM287.044 420.517c36.185 0 65.52 29.358 65.52 65.573 0 36.214-29.335 65.572-65.52 65.572-36.186 0-65.52-29.358-65.52-65.572 0-36.215 29.334-65.573 65.52-65.573z m204.605 0c36.186 0 65.52 29.358 65.52 65.573 0 36.214-29.334 65.572-65.52 65.572-36.185 0-65.52-29.358-65.52-65.572 0-36.215 29.335-65.573 65.52-65.573z m202.307 0c36.186 0 65.52 29.358 65.52 65.573 0 36.214-29.334 65.572-65.52 65.572-36.185 0-65.52-29.358-65.52-65.572 0-36.215 29.335-65.573 65.52-65.573z" p-id="3924"></path>
</svg>
