<?xml version="1.0" encoding="UTF-8"?>
<svg width="25px" height="24px" viewBox="0 0 25 24" version="1.1" xmlns="http://www.w3.org/2000/svg" xmlns:xlink="http://www.w3.org/1999/xlink">
    <title>nft</title>
    <defs>
        <rect id="path-1" x="1" y="0" width="20" height="20" rx="2"></rect>
        <mask id="mask-2" maskContentUnits="userSpaceOnUse" maskUnits="objectBoundingBox" x="-2" y="-2" width="24" height="24">
            <rect x="-1" y="-2" width="24" height="24" fill="white"></rect>
            <use xlink:href="#path-1" fill="black"></use>
        </mask>
    </defs>
    <g id="我的" stroke="none" stroke-width="1" fill="none" fill-rule="evenodd">
        <g transform="translate(-175.000000, -262.000000)" id="nft">
            <g transform="translate(176.500000, 264.000000)">
                <g id="分组-1" transform="translate(0.000000, 5.000000)" fill="#FFA600">
                    <path d="M11.21,10.4345625 C10.64,11.1045625 10.08,11.4445625 9.55,11.4145625 C8.71,11.3845625 7.9,10.5145625 7.37,9.79456246 C6.9,9.14456246 6.28,8.76456246 5.6,8.69456246 C4.48,8.57456246 3.55,9.30456246 3.3,9.52456246 L0,11.7945625 L0.88,13.2845625 L4.28,10.9445625 L4.32,10.9045625 C4.44,10.7945625 4.97,10.3945625 5.44,10.4445625 C5.59,10.4645625 5.82,10.5245625 6.09,10.8845625 C7.17,12.3645625 8.31,13.1345625 9.49,13.1745625 C9.53,13.1845625 9.56,13.1845625 9.6,13.1845625 C10.6,13.1845625 11.54,12.6545625 12.42,11.6145625 C12.64,11.3545625 12.86,11.0945625 13.07,10.8345625 C14.06,9.62456246 15.19,8.25456246 15.97,8.25456246 C16.07,8.25456246 16.38,8.25456246 16.85,8.83456246 C18.74,11.1445625 20.82,13.1745625 20.9,13.2645625 L22,11.9545625 C21.98,11.9345625 19.91,9.91456246 18.08,7.67456246 C17.45,6.89456246 16.74,6.49456246 15.97,6.49456246 C14.45,6.49456246 13.19,8.03456246 11.84,9.66456246 C11.64,9.92456246 11.42,10.1845625 11.21,10.4345625 Z" id="路径"></path>
                    <path d="M4.96061955,0 C6.60061955,0 7.93061955,1.43 7.93061955,3.19 C7.93061955,4.95 6.60061955,6.38 4.96061955,6.38 C3.33061955,6.38 2.00061955,4.95 2.00061955,3.19 C2.00061955,1.43 3.33061955,0 4.96061955,0 Z M4.96718577,1.6432273 C4.16718577,1.6432273 3.52718577,2.3332273 3.52718577,3.1932273 C3.52718577,4.0432273 4.16718577,4.7332273 4.96718577,4.7332273 C5.75718577,4.7332273 6.39718577,4.0432273 6.39718577,3.1932273 C6.39718577,2.3332273 5.75718577,1.6432273 4.96718577,1.6432273 Z" id="分组-2"></path>
                </g>
                <use id="矩形-2" stroke="#212121" mask="url(#mask-2)" stroke-width="4" stroke-dasharray="0,0" xlink:href="#path-1"></use>
            </g>
        </g>
    </g>
</svg>