<svg xmlns="http://www.w3.org/2000/svg" xmlns:xlink="http://www.w3.org/1999/xlink" width="18" height="18" viewBox="0 0 18 18" fill="none"><defs><rect id="path_0" x="0" y="0" width="18" height="17.999993514898744" /></defs><g opacity="1" transform="translate(0 0)  rotate(0 9 8.999996757449372)"><mask id="bg-mask-0" fill="white"><use xlink:href="#path_0"></use></mask><g mask="url(#bg-mask-0)" ><path id="分组 1" fill-rule="evenodd" style="fill:#212121" transform="translate(0 0)  rotate(0 9 8.999996757449372)" opacity="1" d="M3.9695 14.4912C5.3495 16.0912 7.4395 17.0512 9.6995 17.0512C13.7795 17.0512 17.0595 13.9812 17.0595 10.2312C17.0595 7.37122 15.1395 4.83122 12.2995 3.84122C12.5395 4.59122 12.6595 5.38122 12.6595 6.18122C12.6595 10.7512 8.7695 14.4312 3.9695 14.4912Z M12.3625 2.86248C11.8225 2.69248 11.3125 2.99248 11.3125 2.99248C11.1525 3.21248 11.1525 3.39248 11.3125 3.86248C11.5725 4.59248 11.7125 5.37248 11.7125 6.18248C11.7125 10.2525 8.1925 13.5525 3.8425 13.5525C3.7825 13.5525 3.7025 13.5525 3.6225 13.5425C3.1925 13.5225 2.8325 13.8525 2.8125 14.2725C2.8025 14.4425 2.8625 14.6225 2.9725 14.7625C4.4725 16.7225 6.9325 18.0025 9.7025 18.0025C14.2825 18.0025 18.0025 14.5225 18.0025 10.2225C18.0025 6.81248 15.6425 3.90248 12.3625 2.86248Z M6.605 6.7508C6.605 6.7508 6.605 6.7508 6.605 6.7508C6.605 6.7508 6.605 6.7508 6.605 6.7508C6.605 6.7508 6.605 6.7508 6.605 6.7508L6.605 6.7508C6.605 6.7508 6.605 6.7508 6.605 6.7508L6.245 7.5408L5.795 7.6108C5.755 7.6208 5.715 7.6408 5.685 7.6708C5.605 7.7408 5.605 7.8708 5.685 7.9508L6.015 8.2908L5.935 8.7608C5.925 8.8108 5.935 8.8508 5.955 8.8908C6.005 8.9908 6.135 9.0308 6.225 8.9708L6.605 8.7608L6.995 8.9708C7.035 9.0008 7.075 9.0008 7.125 9.0008C7.235 8.9808 7.305 8.8708 7.285 8.7608L7.205 8.2908L7.535 7.9508C7.565 7.9208 7.585 7.8808 7.595 7.8408C7.605 7.7308 7.535 7.6308 7.425 7.6108L6.975 7.5408L6.605 6.7508Z M0.57 3.13C0.56 3.18 0.57 3.23 0.6 3.27C0.65 3.37 0.78 3.4 0.89 3.35L1.69 2.91L2.49 3.35C2.53 3.37 2.58 3.38 2.63 3.37C2.74 3.35 2.82 3.25 2.8 3.13L2.65 2.19L3.31 1.51C3.35 1.48 3.37 1.44 3.37 1.4C3.39 1.28 3.31 1.17 3.19 1.16L2.28 1.02C2.1 0.34 1.91 0 1.72 0C1.52 0 1.32 0.34 1.1 1.02L0.18 1.16C0.14 1.16 0.1 1.18 0.06 1.21C0.02 1.25 0 1.31 0 1.36C0 1.42 0.02 1.47 0.06 1.51L0.73 2.19L0.57 3.13Z " /><path  id="分组 1" style="stroke:#212121; stroke-width:0.3; stroke-opacity:1; stroke-dasharray:0 0" transform="translate(0 0)  rotate(0 9 8.999996757449372)" d="M3.9695 14.4912C5.3495 16.0912 7.4395 17.0512 9.6995 17.0512C13.7795 17.0512 17.0595 13.9812 17.0595 10.2312C17.0595 7.37122 15.1395 4.83122 12.2995 3.84122C12.5395 4.59122 12.6595 5.38122 12.6595 6.18122C12.6595 10.7512 8.7695 14.4312 3.9695 14.4912Z M12.3625 2.86248C11.8225 2.69248 11.3125 2.99248 11.3125 2.99248C11.1525 3.21248 11.1525 3.39248 11.3125 3.86248C11.5725 4.59248 11.7125 5.37248 11.7125 6.18248C11.7125 10.2525 8.1925 13.5525 3.8425 13.5525C3.7825 13.5525 3.7025 13.5525 3.6225 13.5425C3.1925 13.5225 2.8325 13.8525 2.8125 14.2725C2.8025 14.4425 2.8625 14.6225 2.9725 14.7625C4.4725 16.7225 6.9325 18.0025 9.7025 18.0025C14.2825 18.0025 18.0025 14.5225 18.0025 10.2225C18.0025 6.81248 15.6425 3.90248 12.3625 2.86248Z M6.605 6.7508C6.605 6.7508 6.605 6.7508 6.605 6.7508C6.605 6.7508 6.605 6.7508 6.605 6.7508C6.605 6.7508 6.605 6.7508 6.605 6.7508L6.605 6.7508C6.605 6.7508 6.605 6.7508 6.605 6.7508L6.245 7.5408L5.795 7.6108C5.755 7.6208 5.715 7.6408 5.685 7.6708C5.605 7.7408 5.605 7.8708 5.685 7.9508L6.015 8.2908L5.935 8.7608C5.925 8.8108 5.935 8.8508 5.955 8.8908C6.005 8.9908 6.135 9.0308 6.225 8.9708L6.605 8.7608L6.995 8.9708C7.035 9.0008 7.075 9.0008 7.125 9.0008C7.235 8.9808 7.305 8.8708 7.285 8.7608L7.205 8.2908L7.535 7.9508C7.565 7.9208 7.585 7.8808 7.595 7.8408C7.605 7.7308 7.535 7.6308 7.425 7.6108L6.975 7.5408L6.605 6.7508Z M0.57 3.13C0.56 3.18 0.57 3.23 0.6 3.27C0.65 3.37 0.78 3.4 0.89 3.35L1.69 2.91L2.49 3.35C2.53 3.37 2.58 3.38 2.63 3.37C2.74 3.35 2.82 3.25 2.8 3.13L2.65 2.19L3.31 1.51C3.35 1.48 3.37 1.44 3.37 1.4C3.39 1.28 3.31 1.17 3.19 1.16L2.28 1.02C2.1 0.34 1.91 0 1.72 0C1.52 0 1.32 0.34 1.1 1.02L0.18 1.16C0.14 1.16 0.1 1.18 0.06 1.21C0.02 1.25 0 1.31 0 1.36C0 1.42 0.02 1.47 0.06 1.51L0.73 2.19L0.57 3.13Z " /></g></g></svg>