<svg xmlns="http://www.w3.org/2000/svg" xmlns:xlink="http://www.w3.org/1999/xlink" width="35" height="30" viewBox="0 0 35 30" fill="none"><g opacity="1" transform="translate(0 0.001267042767494786)  rotate(0 17.5 14.746169480670023)"><path id="path 1" fill-rule="evenodd" style="fill:#FF8000" transform="translate(10.000011190885315 0)  rotate(0 6.250003077493461 14.746169480670023)" opacity="1" d="M0,6.05L0,23.55L9.25,29.05C11,30.05 12.5,29.3 12.5,27.3L12.5,2.3C12.5,0.3 11,-0.7 9.25,0.55L0,6.05Z " /><path id="path 2" fill-rule="evenodd" style="fill:#FF8000" transform="translate(0 6.051320543675957)  rotate(0 3.7500041965819975 8.750013708834539)" opacity="1" d="M0,13.75C0,15.75 1.75,17.5 3.75,17.5L7.5,17.5L7.5,0L3.75,0C1.75,0 0,1.75 0,3.75L0,13.75Z " /><path id="path 3" fill-rule="evenodd" style="fill:#FF8000" transform="translate(27.500022902146853 13.551328936839942)  rotate(0 3.749988548926574 1.2500013792766174)" opacity="1" d="M1.25,0C0.5,0 0,0.5 0,1.25C0,2 0.5,2.5 1.25,2.5L6.25,2.5C7,2.5 7.5,2 7.5,1.25C7.5,0.5 7,0 6.25,0L1.25,0Z " /><path id="path 4" fill-rule="evenodd" style="fill:#FF8000" transform="translate(26.85049184347142 23.651815866174648)  rotate(0 3.373802399372126 2.5245364137864685)" opacity="1" d="M1.9,0.15C1.4,-0.1 0.65,-0.1 0.15,0.65C-0.1,1.15 -0.1,1.9 0.65,2.4L4.9,4.9C5.4,5.15 6.15,5.15 6.65,4.4C6.9,3.9 6.65,2.9 6.15,2.65L1.9,0.15Z " /><path id="path 5" fill-rule="evenodd" style="fill:#FF8000" transform="translate(26.90194448679947 0.9532409492950445)  rotate(0 3.2230684220063197 2.4730722376708787)" opacity="1" d="M5.85,2.35C6.35,2.1 6.6,1.35 6.35,0.6C6.1,0.1 5.35,-0.15 4.85,0.1L0.6,2.6C0.1,2.85 -0.15,3.6 0.1,4.35C0.35,4.85 1.1,5.1 1.6,4.85L5.85,2.35Z " /></g></svg>
