<svg xmlns="http://www.w3.org/2000/svg" xmlns:xlink="http://www.w3.org/1999/xlink" width="70" height="70" viewBox="0 0 70 70" fill="none"><defs><rect id="path_0" x="0" y="0" width="70" height="70" /></defs><g opacity="1" transform="translate(0 0)  rotate(0 35 35)"><mask id="bg-mask-0" fill="white"><use xlink:href="#path_0"></use></mask><g mask="url(#bg-mask-0)" ><path id="group 1" fill-rule="evenodd" style="fill:#DB0000" transform="translate(0 0)  rotate(0 35 35)" opacity="1" d="M7 35C7 50.4 19.6 63 35 63C50.4 63 63 50.4 63 35C63 19.6 50.4 7 35 7C19.6 7 7 19.6 7 35Z M0 35C0 54.25 15.75 70 35 70C54.25 70 70 54.25 70 35C70 15.75 54.25 -1.94289e-15 35 -1.94289e-15C15.75 -1.94289e-15 0 15.75 0 35Z " /><path id="path 3" fill-rule="evenodd" style="fill:#DB0000" transform="translate(31.5 17.5)  rotate(0 3.5000000000000013 10.500000000000004)" opacity="1" d="M0,3.5L0,17.5C0,19.6 1.4,21 3.5,21C5.6,21 7,19.6 7,17.5L7,3.5C7,1.4 5.6,0 3.5,0C1.4,0 0,1.4 0,3.5Z " /><path id="path 4" fill-rule="evenodd" style="fill:#DB0000" transform="translate(31.499999999999993 45.499999900194645)  rotate(0 3.500000000000007 3.5000000499026775)" opacity="1" d="M3.5,7C5.43,7 7,5.43 7,3.5C7,2.25 6.33,1.09 5.25,0.47C4.17,-0.16 2.83,-0.16 1.75,0.47C0.67,1.09 0,2.25 0,3.5C0,5.43 1.57,7 3.5,7Z " /></g></g></svg>
