<svg xmlns="http://www.w3.org/2000/svg" xmlns:xlink="http://www.w3.org/1999/xlink" width="20" height="20" viewBox="0 0 20 20" fill="none"><g opacity="1" transform="translate(1 1)  rotate(0 9 9)"><path  id="circle 1" style="stroke:#212121; stroke-width:2; stroke-opacity:1; stroke-dasharray:0 0" transform="translate(0 0)  rotate(0 9 9)" d="M9,0C4.03,0 0,4.03 0,9C0,13.97 4.03,18 9,18C13.97,18 18,13.97 18,9C18,4.03 13.97,0 9,0Z " /><g opacity="1" transform="translate(8 5)  rotate(0 2.1424679359147283 3.78834443902913)"><path id="line 1"  style="fill:#212121" transform="translate(0 0)  rotate(0 0.0005 2.5)" opacity="1" d="M-1 0Q-1 -0.19886 -0.923918 -0.382591Q-0.847836 -0.566322 -0.707248 -0.706965Q-0.566624 -0.847646 -0.382868 -0.923803Q-0.199112 -0.99996 -0.0002 -1Q0.198712 -1.00004 0.382499 -0.923956Q0.566285 -0.847872 0.706965 -0.707248Q0.847646 -0.566624 0.923803 -0.382868Q0.99996 -0.199112 1 -0.0002L0 0L1 0L1 4.9998L1.001 4.9998Q1.00104 5.19871 0.924956 5.3825Q0.848872 5.56629 0.708248 5.70696Q0.567624 5.84765 0.383868 5.9238Q0.200113 5.99996 0.0012002 6Q-0.0972912 6.00002 -0.193894 5.98082Q-0.290497 5.96163 -0.381498 5.92396Q-0.4725 5.88628 -0.554404 5.83158Q-0.636307 5.77688 -0.705965 5.70725Q-0.775623 5.63762 -0.830358 5.55574Q-0.885094 5.47385 -0.922803 5.38287Q-0.960512 5.29188 -0.979746 5.19529Q-0.99898 5.09869 -0.999 5.0002L0.00219194 5L-1 5L-1 0Z " /><path  id="line 1" style="stroke:#212121; stroke-width:2; stroke-opacity:1; stroke-dasharray:0 0" transform="translate(0 0)  rotate(0 0.0005 2.5)" d="" /><path id="line 1"  style="fill:#212121" transform="translate(0 5)  rotate(0 2.1424679359147283 1.28834443902913)" opacity="1" d="M-0.856987 -0.515338Q-0.907709 -0.43099 -0.941012 -0.338372Q-0.974316 -0.245755 -0.988924 -0.148421Q-1.00353 -0.0510881 -0.998884 0.0472255Q-0.994236 0.145539 -0.97051 0.24106Q-0.946784 0.336581 -0.904891 0.425644Q-0.862998 0.514706 -0.804545 0.593892Q-0.746092 0.673078 -0.673322 0.739349Q-0.600553 0.80562 -0.51626 0.856432L-0.515338 0.856988L3.76374 3.43643L4.79626 1.72357L0.51626 -0.856432L0 0L0.515338 -0.856987Q0.430932 -0.907743 0.338246 -0.941058Q0.24556 -0.974372 0.148155 -0.988964Q0.0507507 -1.00356 -0.0476289 -0.998865Q-0.146008 -0.994174 -0.241583 -0.97038Q-0.337157 -0.946586 -0.426252 -0.904604Q-0.515348 -0.862622 -0.594542 -0.804065Q-0.673735 -0.745507 -0.739983 -0.672625Q-0.806231 -0.599744 -0.856987 -0.515338ZM4.80027 1.7197Q4.97074 1.82221 5.089 1.98215Q5.20726 2.14209 5.25532 2.33511Q5.30337 2.52813 5.2739 2.72484Q5.24443 2.92156 5.14192 3.09203Q5.09117 3.17643 5.02492 3.24931Q4.95867 3.3222 4.87948 3.38075Q4.80028 3.43931 4.71119 3.48129Q4.62209 3.52327 4.52652 3.54707Q4.43094 3.57086 4.33256 3.57555Q4.23418 3.58024 4.13678 3.56565Q4.03938 3.55106 3.94669 3.51775Q3.854 3.48443 3.7696 3.43368L4.80027 1.7197Z " /><path  id="line 1" style="stroke:#212121; stroke-width:2; stroke-opacity:1; stroke-dasharray:0 0" transform="translate(0 5)  rotate(0 2.1424679359147283 1.28834443902913)" d="" /></g></g></svg>
