<svg xmlns="http://www.w3.org/2000/svg" xmlns:xlink="http://www.w3.org/1999/xlink" width="30" height="30" viewBox="0 0 30 30" fill="none"><defs><rect id="path_0" x="0" y="0" width="30" height="30" /></defs><g opacity="1" transform="translate(0 0)  rotate(0 15 15)"><mask id="bg-mask-0" fill="white"><use xlink:href="#path_0"></use></mask><g mask="url(#bg-mask-0)" ><path id="分组 1" fill-rule="evenodd" style="fill:#FFFFFF" transform="translate(0 0)  rotate(0 15 15)" opacity="1" d="M0 15C0 23.28 6.72 30 15 30C23.28 30 30 23.28 30 15C30 6.72 23.28 0 15 0C6.72 0 0 6.72 0 15Z M21.2791 15.9929C21.6191 15.7729 21.8191 15.4029 21.8191 15.0029C21.8191 14.6029 21.6191 14.2229 21.2791 14.0029L12.7591 8.38294C12.3891 8.14294 11.9191 8.11294 11.5391 8.32294C11.1491 8.53294 10.9091 8.93294 10.9091 9.37294L10.9091 20.6229C10.9091 21.0629 11.1491 21.4629 11.5391 21.6729C11.9191 21.8829 12.3891 21.8629 12.7591 21.6229L21.2791 15.9929L21.2791 15.9929Z " /></g></g></svg>