<svg xmlns="http://www.w3.org/2000/svg" xmlns:xlink="http://www.w3.org/1999/xlink" width="30" height="30" viewBox="0 0 30 30" fill="none"><g opacity="1" transform="translate(0 0)  rotate(0 15 15)"><path id="path 1" fill-rule="evenodd" style="fill:#FFFFFF" transform="translate(0 0)  rotate(0 15 15)" opacity="0.3" d="M0,15C0,23.28 6.72,30 15,30C23.28,30 30,23.28 30,15C30,6.72 23.28,0 15,0C6.72,0 0,6.72 0,15Z " /><path id="path 2" fill-rule="evenodd" style="fill:#FFFFFF" transform="translate(10.90909090618544 8.18294272896128)  rotate(0 5.45449938412808 6.817449432476889)" opacity="1" d="M10.37,7.81C10.71,7.59 10.91,7.22 10.91,6.82C10.91,6.42 10.71,6.04 10.37,5.82L1.85,0.2C1.48,-0.04 1.01,-0.07 0.63,0.14C0.24,0.35 0,0.75 0,1.19L0,12.44C0,12.88 0.24,13.28 0.63,13.49C1.01,13.7 1.48,13.68 1.85,13.44L10.37,7.81L10.37,7.81Z " /></g></svg>
