<?xml version="1.0" encoding="UTF-8"?>
<svg width="22px" height="25px" viewBox="0 0 22 25" version="1.1" xmlns="http://www.w3.org/2000/svg" xmlns:xlink="http://www.w3.org/1999/xlink">
    <title>promotion</title>
    <defs>
        <path d="M10.8285714,0 C11.3808562,3.89074334e-16 11.8285714,0.44771525 11.8285714,1 L11.828,1.84 L12.8,1.84 C13.3522847,1.84 13.8,2.28771525 13.8,2.84 L13.8,4.52 C13.8,5.07228475 13.3522847,5.52 12.8,5.52 L5.6,5.52 C5.04771525,5.52 4.6,5.07228475 4.6,4.52 L4.6,2.84 C4.6,2.28771525 5.04771525,1.84 5.6,1.84 L6.571,1.84 L6.57142857,1 C6.57142857,0.44771525 7.01914382,1.01453063e-16 7.57142857,0 L10.8285714,0 Z" id="path-1"></path>
        <mask id="mask-2" maskContentUnits="userSpaceOnUse" maskUnits="objectBoundingBox" x="-2" y="-2" width="13.2" height="9.52">
            <rect x="2.6" y="-2" width="13.2" height="9.52" fill="white"></rect>
            <use xlink:href="#path-1" fill="black"></use>
        </mask>
    </defs>
    <g id="my" stroke="none" stroke-width="1" fill="none" fill-rule="evenodd">
        <g transform="translate(-287.000000, -531.000000)" id="promotion">
            <g transform="translate(288.800000, 533.000000)">
                <path d="M14.2242627,3.6 L16.4,3.6 C17.5045695,3.6 18.4,4.4954305 18.4,5.6 L18.4,20 C18.4,21.1045695 17.5045695,22 16.4,22 L2,22 C0.8954305,22 0,21.1045695 0,20 L0,5.6 C0,4.4954305 0.8954305,3.6 2,3.6 L5.26390985,3.6 L5.26390985,3.6" id="path" stroke="#212121" stroke-width="2" stroke-dasharray="0,0"></path>
                <g id="group-1" transform="translate(2.484876, 8.120000)" fill="#FFA600">
                    <path d="M3.30873659,1.84 C3.81683856,1.84 4.22873659,2.25189803 4.22873659,2.76 L4.22873659,8.28 C4.22873659,8.78810197 3.81683856,9.2 3.30873659,9.2 C2.80063462,9.2 2.38873659,8.78810197 2.38873659,8.28 L2.38873659,2.76 C2.38873659,2.25189803 2.80063462,1.84 3.30873659,1.84 Z" id="rectangle-2" transform="translate(3.308737, 5.520000) rotate(-46.687023) translate(-3.308737, -5.520000) "></path>
                    <path d="M8.82949272,-1.04376902 C8.32139075,-1.04376902 7.90949272,-0.63187099 7.90949272,-0.12376902 L7.90949272,8.94760158 C7.90949272,9.45570355 8.32139075,9.86760158 8.82949272,9.86760158 C9.33759469,9.86760158 9.74949272,9.45570355 9.74949272,8.94760158 L9.74949272,-0.12376902 C9.74949272,-0.63187099 9.33759469,-1.04376902 8.82949272,-1.04376902 Z" id="rectangle-2" transform="translate(8.829493, 4.411916) rotate(46.687023) translate(-8.829493, -4.411916) "></path>
                </g>
                <use id="union" stroke="#212121" mask="url(#mask-2)" stroke-width="4" fill="#FFFFFF" stroke-dasharray="0,0" xlink:href="#path-1"></use>
            </g>
        </g>
    </g>
</svg>
