<svg xmlns="http://www.w3.org/2000/svg" xmlns:xlink="http://www.w3.org/1999/xlink" width="20" height="20" viewBox="0 0 20 20" fill="none"><defs><rect id="path_0" x="0" y="0" width="20" height="20" /></defs><g opacity="1" transform="translate(0 0)  rotate(0 10 10)"><mask id="bg-mask-0" fill="white"><use xlink:href="#path_0"></use></mask><g mask="url(#bg-mask-0)" ><path id="分组 1" fill-rule="evenodd" style="fill:#000000" transform="translate(0 0)  rotate(0 10 10)" opacity="1" d="M0 10C0 15.52 4.48 20 10 20C15.52 20 20 15.52 20 10C20 4.48 15.52 0 10 0C4.48 0 0 4.48 0 10Z M18.4 10C18.4 5.36 14.64 1.6 10 1.6C5.36 1.6 1.6 5.36 1.6 10C1.6 14.64 5.36 18.4 10 18.4C14.64 18.4 18.4 14.64 18.4 10Z " /><path id="路径 3" fill-rule="evenodd" style="fill:#000000" transform="translate(8.800000000783202 13.200000010964846)  rotate(0 1.1999999992167971 1.1999999992167973)" opacity="1" d="M1.2,2.4C1.86,2.4 2.4,1.86 2.4,1.2C2.4,0.54 1.86,0 1.2,0C0.54,0 0,0.54 0,1.2C0,1.86 0.54,2.4 1.2,2.4Z " /><path id="路径 4" fill-rule="evenodd" style="fill:#000000" transform="translate(9.19999998746875 4.399999990601563)  rotate(0 0.8000000027412103 4.000000003916015)" opacity="1" d="M0,0.8L0,7.2C0,7.64 0.36,8 0.8,8C1.24,8 1.6,7.64 1.6,7.2L1.6,0.8C1.6,0.36 1.24,0 0.8,0C0.36,0 0,0.36 0,0.8Z " /></g></g></svg>