<svg xmlns="http://www.w3.org/2000/svg" xmlns:xlink="http://www.w3.org/1999/xlink" width="20" height="20" viewBox="0 0 20 20" fill="none"><defs><rect id="path_0" x="0" y="0" width="20" height="20" /></defs><g opacity="1" transform="translate(0 0)  rotate(0 10 10)"><mask id="bg-mask-0" fill="white"><use xlink:href="#path_0"></use></mask><g mask="url(#bg-mask-0)" ><path id="group 1" fill-rule="evenodd" style="fill:#212121" transform="translate(0 0)  rotate(0 10 10)" opacity="1" d="M16.4104 18.1868L14.5604 18.1868L14.5604 19.9968L16.4104 19.9968L16.4104 18.1868Z M19.9952 19.1768L19.9952 18.1868L18.2252 18.1868L18.2252 19.9968L19.1752 19.9968C19.6252 19.9968 19.9952 19.6268 19.9952 19.1768Z M7.25322 1.8132Z M1.81322 1.8132L1.81322 7.2532L7.25322 7.2532L7.25322 1.8132L1.81322 1.8132Z M0.82 0C0.37 0 0 0.37 0 0.82L0 8.24C0 8.7 0.37 9.07 0.82 9.07L8.24 9.07C8.7 9.07 9.07 8.7 9.07 8.24L9.07 0.82C9.07 0.37 8.7 0 8.24 0L0.82 0Z M4.53642 5.43642C5.03642 5.43642 5.43642 5.03642 5.43642 4.53642C5.43642 4.03642 5.03642 3.62642 4.53642 3.62642C4.03642 3.62642 3.62642 4.03642 3.62642 4.53642C3.62642 5.03642 4.03642 5.43642 4.53642 5.43642Z M18.1872 1.8132L12.7472 1.8132L12.7472 7.2532L18.1872 7.2532L18.1872 1.8132Z M11.754 0C11.304 0 10.934 0.37 10.934 0.82L10.934 8.24C10.934 8.7 11.304 9.07 11.754 9.07L19.174 9.07C19.634 9.07 20.004 8.7 20.004 8.24L20.004 0.82C20.004 0.37 19.634 0 19.174 0L11.754 0Z M15.4704 5.43642C15.9704 5.43642 16.3704 5.03642 16.3704 4.53642C16.3704 4.03642 15.9704 3.62642 15.4704 3.62642C14.9704 3.62642 14.5604 4.03642 14.5604 4.53642C14.5604 5.03642 14.9704 5.43642 15.4704 5.43642Z M7.25322 12.7472L1.81322 12.7472L1.81322 18.1872L7.25322 18.1872L7.25322 12.7472Z M9.07 19.174L9.07 11.754C9.07 11.304 8.7 10.934 8.24 10.934L0.82 10.934C0.37 10.934 0 11.304 0 11.754L0 19.174C0 19.634 0.37 20.004 0.82 20.004L8.24 20.004C8.7 20.004 9.07 19.634 9.07 19.174Z M4.53642 16.3704C5.03642 16.3704 5.43642 15.9704 5.43642 15.4704C5.43642 14.9704 5.03642 14.5604 4.53642 14.5604C4.03642 14.5604 3.62642 14.9704 3.62642 15.4704C3.62642 15.9704 4.03642 16.3704 4.53642 16.3704Z M20.004 16.374L20.004 11.754C20.004 11.304 19.634 10.934 19.174 10.934L18.164 10.934L18.164 14.564L16.354 14.564L16.354 10.934L11.754 10.934C11.304 10.934 10.934 11.304 10.934 11.754L10.934 19.174C10.934 19.634 11.304 20.004 11.754 20.004L12.744 20.004L12.744 14.564L14.564 14.564L14.564 16.374L20.004 16.374Z " /></g></g></svg>
