<svg xmlns="http://www.w3.org/2000/svg" xmlns:xlink="http://www.w3.org/1999/xlink" width="20" height="18" viewBox="0 0 20 18" fill="none"><defs><rect id="path_0" x="0" y="0" width="19.111111111111054" height="17.763682639325427" /></defs><g opacity="1" transform="translate(0 0)  rotate(0 9.555555555555527 8.881841319662714)"><mask id="bg-mask-0" fill="white"><use xlink:href="#path_0"></use></mask><g mask="url(#bg-mask-0)" ><path id="path 1" fill-rule="evenodd" style="fill:#424242" transform="translate(6.439084090193722 0)  rotate(0 6.336013510458669 5.964758916738707)" opacity="1" d="M4.58,11.93C5.78,11.93 6.98,11.51 7.9,10.68L11.29,7.53C12.21,6.67 12.67,5.54 12.67,4.41C12.67,1.97 10.56,0 7.94,0C6.73,0 5.51,0.43 4.58,1.28L1.46,4.18C1.18,4.45 1.18,4.88 1.46,5.15C1.75,5.41 2.22,5.41 2.51,5.15L5.62,2.26L5.63,2.26C6.26,1.66 7.1,1.37 7.94,1.37C9.76,1.37 11.21,2.72 11.21,4.41C11.21,5.19 10.9,5.97 10.26,6.56L6.87,9.71C6.24,10.28 5.41,10.57 4.58,10.57C3.43,10.57 2.35,10 1.76,9.09C1.63,8.87 1.51,8.64 1.44,8.4C1.33,8.03 0.92,7.83 0.52,7.94C0.14,8.04 -0.08,8.43 0.03,8.79C0.15,9.13 0.3,9.47 0.51,9.78L0.51,9.79C1.36,11.1 2.89,11.93 4.58,11.93Z " /><path id="path 2" fill-rule="evenodd" style="fill:#424242" transform="translate(0 5.841567560119927)  rotate(0 6.332191753211079 5.96105753960275)" opacity="1" d="M10.17,6.78L7.05,9.67C5.79,10.85 3.68,10.85 2.42,9.68L2.42,9.67C1.15,8.5 1.15,6.54 2.42,5.37L5.77,2.25C6.41,1.66 7.24,1.37 8.09,1.37C8.94,1.37 9.77,1.66 10.41,2.25L10.41,2.26C10.61,2.43 10.76,2.63 10.9,2.85C11.05,3.06 11.15,3.29 11.22,3.53C11.34,3.9 11.75,4.1 12.13,3.99C12.52,3.89 12.75,3.51 12.64,3.14C12.52,2.79 12.36,2.46 12.18,2.15C11.96,1.84 11.73,1.55 11.45,1.28C10.52,0.43 9.31,0 8.09,0C6.87,0 5.66,0.43 4.72,1.28L1.37,4.41C-0.46,6.11 -0.46,8.94 1.37,10.65L1.42,10.68C3.26,12.35 6.25,12.33 8.08,10.66L8.08,10.65L8.09,10.64L11.21,7.75C11.5,7.48 11.5,7.05 11.2,6.78C10.92,6.51 10.45,6.51 10.17,6.78Z " /></g></g></svg>
