<svg xmlns="http://www.w3.org/2000/svg" xmlns:xlink="http://www.w3.org/1999/xlink" width="20" height="20" viewBox="0 0 20 20" fill="none"><g opacity="1" transform="translate(0.00019531250109139364 0)  rotate(0 10 10)"><path id="group 1" fill-rule="evenodd" style="fill:#212121" transform="translate(0 0)  rotate(0 10 10)" opacity="1" d="M0 10C0 15.52 4.48 20 10 20C15.52 20 20 15.52 20 10C20 4.48 15.52 0 10 0C4.48 0 0 4.48 0 10Z M18.4 10C18.4 5.36 14.64 1.6 10 1.6C5.36 1.6 1.6 5.36 1.6 10C1.6 14.64 5.36 18.4 10 18.4C14.64 18.4 18.4 14.64 18.4 10Z " /><g opacity="1" transform="translate(5.7 2.5)  rotate(0 4 6.5)"><text><tspan x="0" y="12.98828125" font-size="14"  fill="#212121" opacity="1" font-family="Roboto-Medium" letter-spacing="0" >R</tspan></text></g></g></svg>
