<svg xmlns="http://www.w3.org/2000/svg" xmlns:xlink="http://www.w3.org/1999/xlink" width="14" height="21" viewBox="0 0 14 21" fill="none"><defs><rect id="path_0" x="0" y="0" width="14" height="11.156250000000007" /><rect id="path_1" x="0" y="0" width="14" height="11.156250000000007" /></defs><g opacity="1" transform="translate(0 0)  rotate(0 7 10.500000000000007)"><g opacity="1" transform="translate(0 0)  rotate(0 7 5.5781250000000036)"><mask id="bg-mask-0" fill="white"><use xlink:href="#path_0"></use></mask><g mask="url(#bg-mask-0)" ><path id="path 1" fill-rule="evenodd" style="fill:#424242" transform="translate(0 0)  rotate(0 7 5.5781250000000036)" opacity="1" d="M10.11,8.18L13.87,4.46C14.04,4.29 14.04,4.01 13.87,3.84L10.11,0.13C10.03,0.05 9.92,0 9.8,0C9.68,0 9.57,0.05 9.49,0.13L9.18,0.44C9,0.61 9,0.88 9.18,1.06L11.66,3.51L4.2,3.51C1.93,3.51 0.07,5.29 0,7.54L0,7.66L0,11.16L1.33,11.16L1.33,7.66C1.33,6.13 2.55,4.87 4.1,4.82L4.2,4.82L11.64,4.82L9.18,7.25L9.18,7.25C9.02,7.41 9,7.66 9.14,7.83L9.18,7.87L9.49,8.18C9.65,8.34 9.9,8.35 10.07,8.22L10.11,8.18Z " /></g></g><g opacity="1" transform="translate(0 9.84375000000001)  rotate(0 7 5.5781250000000036)"><mask id="bg-mask-1" fill="white"><use xlink:href="#path_1"></use></mask><g mask="url(#bg-mask-1)" ><path id="path 1" fill-rule="evenodd" style="fill:#424242" transform="translate(0 0)  rotate(0 7 5.5781250000000036)" opacity="1" d="M3.89,2.98L0.13,6.7C-0.04,6.87 -0.04,7.15 0.13,7.32L3.89,11.03C3.97,11.11 4.08,11.16 4.2,11.16C4.32,11.16 4.43,11.11 4.51,11.03L4.82,10.72C5,10.55 5,10.27 4.82,10.1L2.34,7.65L9.8,7.65C12.07,7.65 13.93,5.86 14,3.62L14,3.5L14,0L12.67,0L12.67,3.5C12.67,5.03 11.45,6.28 9.9,6.34L9.8,6.34L2.36,6.34L4.82,3.9L4.82,3.9C4.98,3.75 5,3.5 4.86,3.33L4.82,3.29L4.51,2.98C4.35,2.82 4.1,2.8 3.93,2.94L3.89,2.98Z " /></g></g></g></svg>
