<svg xmlns="http://www.w3.org/2000/svg" xmlns:xlink="http://www.w3.org/1999/xlink" width="11" height="17" viewBox="0 0 11 17" fill="none"><defs><rect id="path_0" x="0" y="0" width="11" height="8.765625000000004" /><rect id="path_1" x="0" y="0" width="11" height="8.765625000000004" /></defs><g opacity="1" transform="translate(-0.00004069010424245789 0)  rotate(0 5.5 8.250000000000004)"><g opacity="1" transform="translate(0 0)  rotate(0 5.5 4.382812500000002)"><mask id="bg-mask-0" fill="white"><use xlink:href="#path_0"></use></mask><g mask="url(#bg-mask-0)" ><path id="path 1" fill-rule="evenodd" style="fill:#636363" transform="translate(0 0)  rotate(0 5.5 4.382812500000002)" opacity="1" d="M7.95,6.43L10.9,3.5C11.03,3.37 11.03,3.15 10.9,3.02L7.95,0.1C7.88,0.04 7.79,0 7.7,0C7.61,0 7.52,0.04 7.46,0.1L7.21,0.34C7.07,0.48 7.07,0.7 7.21,0.83L9.16,2.75L3.3,2.75C1.52,2.75 0.05,4.16 0,5.92L0,6.02L0,8.77L1.04,8.77L1.04,6.02C1.04,4.82 2.01,3.83 3.22,3.79L3.3,3.78L9.15,3.78L7.21,5.7L7.21,5.7C7.09,5.82 7.07,6.02 7.18,6.15L7.21,6.18L7.46,6.43C7.58,6.55 7.78,6.56 7.91,6.46L7.95,6.43Z " /></g></g><g opacity="1" transform="translate(0 7.734375000000009)  rotate(0 5.5 4.382812500000002)"><mask id="bg-mask-1" fill="white"><use xlink:href="#path_1"></use></mask><g mask="url(#bg-mask-1)" ><path id="path 1" fill-rule="evenodd" style="fill:#636363" transform="translate(0 0)  rotate(0 5.5 4.382812500000002)" opacity="1" d="M3.05,2.34L0.1,5.26C-0.03,5.4 -0.03,5.62 0.1,5.75L3.05,8.66C3.12,8.73 3.21,8.77 3.3,8.77C3.39,8.77 3.48,8.73 3.54,8.66L3.79,8.42C3.93,8.29 3.93,8.07 3.79,7.94L1.84,6.01L7.7,6.01C9.48,6.01 10.95,4.61 11,2.84L11,2.75L11,0L9.96,0L9.96,2.75C9.96,3.95 8.99,4.94 7.78,4.98L7.7,4.98L1.85,4.98L3.79,3.07L3.79,3.07C3.91,2.94 3.93,2.75 3.82,2.61L3.79,2.58L3.54,2.34C3.42,2.22 3.22,2.2 3.09,2.31L3.05,2.34Z " /></g></g></g></svg>
