<svg width="20" height="17" viewBox="0 0 20 17" fill="none" xmlns="http://www.w3.org/2000/svg">
<path d="M1.83327 4.05505C3.01778 2.87064 4.59185 2.21894 6.2647 2.21894L12.8401 2.21894L12.8401 0.961429C12.8401 0.560392 13.1152 0.40992 13.4546 0.627725L16.481 2.58129C16.819 2.80039 16.8161 3.15133 16.4738 3.36323L13.4604 5.22947C13.1209 5.44149 12.8401 5.28533 12.8401 4.88432L12.8401 3.63118L6.26326 3.63118C3.58787 3.63118 1.41083 5.80963 1.41083 8.48364C1.41083 8.92762 1.46949 9.36591 1.58696 9.78689C1.69155 10.1636 1.47092 10.5518 1.09425 10.6549C1.03119 10.675 0.968259 10.6835 0.905206 10.6835C0.595866 10.6835 0.312186 10.4773 0.224885 10.1665C0.0745304 9.62083 7.45468e-07 9.055 6.9564e-07 8.48502C5.49399e-07 6.81222 0.651698 5.23672 1.83327 4.05505ZM3.00063 13.6067L6.0126 11.7405C6.35496 11.5286 6.63568 11.6832 6.63568 12.0857L6.63568 13.3361L13.7339 13.3361C16.4093 13.3361 18.5864 11.1591 18.5864 8.48366C18.5864 7.54696 18.3185 6.6375 17.8129 5.85401C17.6009 5.52597 17.6955 5.08777 18.022 4.8758C18.3501 4.66524 18.7883 4.75976 18.9988 5.08625C19.6534 6.09888 20 7.27476 20 8.48505C20 10.1593 19.3483 11.732 18.1653 12.915C16.9822 14.0995 15.4082 14.7512 13.7339 14.7512L6.63424 14.7512L6.63424 16.0087C6.63424 16.4111 6.35778 16.5615 6.0198 16.3424L2.99342 14.3874C2.65543 14.1696 2.65825 13.8187 3.00063 13.6067Z" fill="#FF8D1A"/>
</svg>
