<svg xmlns="http://www.w3.org/2000/svg" xmlns:xlink="http://www.w3.org/1999/xlink" width="10" height="15" viewBox="0 0 10 15" fill="none"><defs><rect id="path_0" x="0" y="0" width="9.999999999999998" height="14.999999999999998" /></defs><g opacity="1" transform="translate(0 0)  rotate(0 4.999999999999999 7.499999999999999)"><mask id="bg-mask-0" fill="white"><use xlink:href="#path_0"></use></mask><g mask="url(#bg-mask-0)" ><path id="路径 1" fill-rule="evenodd" style="fill:#B5B5B5" transform="translate(0 0)  rotate(0 4.999999999999999 7.499999999999999)" opacity="1" d="M0.84,1.67L7.57,7.29L0.34,13.33C-0.06,13.66 -0.12,14.26 0.22,14.66C0.41,14.88 0.68,15 0.95,15C1.17,15 1.39,14.93 1.56,14.78L9.66,8.02C9.88,7.84 10,7.57 10,7.29C10,7.01 9.88,6.75 9.66,6.57L2.06,0.22C1.66,-0.11 1.06,-0.06 0.72,0.34C0.38,0.74 0.43,1.34 0.84,1.67Z " /></g></g></svg>