<svg xmlns="http://www.w3.org/2000/svg" xmlns:xlink="http://www.w3.org/1999/xlink" width="20" height="20" viewBox="0 0 20 20" fill="none"><defs><rect id="path_0" x="0" y="0" width="20" height="20" /></defs><g opacity="1" transform="translate(0 0)  rotate(0 10 10)"><mask id="bg-mask-0" fill="white"><use xlink:href="#path_0"></use></mask><g mask="url(#bg-mask-0)" ><path id="group 1" fill-rule="evenodd" style="fill:#212121" transform="translate(0 0)  rotate(0 10 10)" opacity="1" d="M8.49989 14.9999C12.0899 14.9999 14.9999 12.0899 14.9999 8.49989C14.9999 4.90989 12.0899 1.99989 8.49989 1.99989C4.90989 1.99989 1.99989 4.90989 1.99989 8.49989C1.99989 12.0899 4.90989 14.9999 8.49989 14.9999Z M0 8.5C0 13.19 3.81 17 8.5 17C10.48 17 12.31 16.31 13.76 15.17L18.29 19.71C18.68 20.1 19.32 20.1 19.71 19.71C20.1 19.32 20.1 18.68 19.71 18.29L15.18 13.76C16.32 12.31 17 10.48 17 8.5C17 3.81 13.19 0 8.5 0C3.81 0 0 3.81 0 8.5Z " /></g></g></svg>
