<svg xmlns="http://www.w3.org/2000/svg" xmlns:xlink="http://www.w3.org/1999/xlink" width="36" height="36" viewBox="0 0 36 36" fill="none"><defs><rect id="path_0" x="0" y="0" width="35.067507089827934" height="36" /></defs><g opacity="1" transform="translate(0.00005993164859319222 0)  rotate(0 17.533753544913967 18)"><mask id="bg-mask-0" fill="white"><use xlink:href="#path_0"></use></mask><g mask="url(#bg-mask-0)" ><path id="路径 1" fill-rule="evenodd" style="fill:#F20085" transform="translate(0 0)  rotate(0 17.533753544913967 18)" opacity="1" d="M0.02,30.65C-0.1,32.02 0.35,33.38 1.28,34.4C2.21,35.42 3.53,36 4.91,36L30.16,36C31.54,36 32.85,35.42 33.78,34.4C34.71,33.38 35.17,32.02 35.05,30.65L32.67,4.46C32.44,1.94 30.32,0 27.78,0L7.29,0L7.29,0C4.75,0 2.63,1.94 2.4,4.46L0.02,30.65Z " /><path id="路径 2" fill-rule="evenodd" style="fill:#FFFFFF" transform="translate(9.361513588006 5.318549509297383)  rotate(0 8.171936133800639 3.6824875090332077)" opacity="1" d="M8.17,4.91C5.57,4.91 3.25,3.27 2.38,0.82C2.24,0.41 1.88,0.1 1.45,0.02C1.02,-0.06 0.58,0.1 0.29,0.43C0.01,0.76 -0.08,1.22 0.07,1.64C1.28,5.07 4.53,7.36 8.17,7.36C11.81,7.36 15.06,5.07 16.27,1.64C16.5,1 16.16,0.3 15.53,0.07C14.89,-0.16 14.18,0.18 13.96,0.82C13.09,3.27 10.77,4.91 8.17,4.91Z " /></g></g></svg>