<svg xmlns="http://www.w3.org/2000/svg" xmlns:xlink="http://www.w3.org/1999/xlink" width="37" height="39" viewBox="0 0 37 39" fill="none"><defs><rect id="path_0" x="0" y="0" width="37" height="38.765331248237345" /></defs><g opacity="1" transform="translate(0 0.00002480556872797024)  rotate(0 18.5 19.382665624118673)"><mask id="bg-mask-0" fill="white"><use xlink:href="#path_0"></use></mask><g mask="url(#bg-mask-0)" ><path id="group 1" fill-rule="evenodd" style="fill:#02CC78" transform="translate(0 0)  rotate(0 18.5 19.382665624118673)" opacity="1" d="M36.9407 37.7206L34.1907 31.4506C33.9407 30.8706 33.1007 30.4006 32.3107 30.4006L21.9907 30.4006L35.6607 16.8206C36.2107 16.2806 36.5207 15.5306 36.5207 14.7606C36.5207 13.9806 36.2107 13.2306 35.6607 12.6906L23.7507 0.860555C22.5907 -0.289445 20.7307 -0.289445 19.5807 0.860555L2.90072 17.4206C2.35072 17.9606 2.04072 18.7106 2.04072 19.4906C2.04072 20.2606 2.35072 21.0106 2.90072 21.5606L11.8107 30.4006L4.69072 30.4006C3.90072 30.4006 3.06072 30.8706 2.81072 31.4506L0.0607231 37.7206C-0.189277 38.3006 0.370723 38.7606 1.32072 38.7606L35.6807 38.7606C36.6307 38.7606 37.1907 38.3006 36.9407 37.7206Z M8.63033 33.3031C7.95034 33.3031 7.40033 33.8531 7.40033 34.5331C7.40033 35.2131 7.95034 35.7731 8.63033 35.7731L28.3703 35.7731C29.0503 35.7731 29.6003 35.2131 29.6003 34.5331C29.6003 33.8531 29.0503 33.3031 28.3703 33.3031L8.63033 33.3031Z M26.0799 13.1353C25.8599 12.9153 25.5599 12.7853 25.2499 12.7753C24.9399 12.7653 24.6399 12.8853 24.4199 13.1053L24.4199 13.1053L17.3699 20.3653L14.8399 17.7553C14.5499 17.4253 14.0999 17.2853 13.6699 17.3953C13.2399 17.5153 12.9099 17.8553 12.8099 18.2953C12.6999 18.7253 12.8299 19.1853 13.1499 19.4953L16.5299 22.9853C16.7499 23.2153 17.0599 23.3453 17.3699 23.3453C17.6899 23.3453 17.9999 23.2153 18.2199 22.9853L26.1099 14.8453C26.5399 14.3553 26.5299 13.6153 26.0799 13.1353Z " /></g></g></svg>
