<svg xmlns="http://www.w3.org/2000/svg" class="styles__StyledSVGIconPathComponent-sc-16fsqc8-0 ihyKbs svg-icon-path-icon fill" viewBox="0 0 32 32" width="16" height="16">
  <defs data-reactroot=""></defs>
  <g>
    <path d="M17.333 18.749v10.584h-12c0-0 0-0.001 0-0.001 0-5.891 4.776-10.667 10.667-10.667 0.47 0 0.933 0.030 1.387 0.089l-0.054-0.006zM16 17.333c-4.42 0-8-3.58-8-8s3.58-8 8-8 8 3.58 8 8-3.58 8-8 8zM23.724 26.552l4.713-4.713 1.887 1.885-6.6 6.6-4.715-4.715 1.887-1.885 2.827 2.828z"></path>
  </g>
</svg>
