<svg xmlns="http://www.w3.org/2000/svg" xmlns:xlink="http://www.w3.org/1999/xlink" width="22" height="22" viewBox="0 0 22 22" fill="none"><defs><rect id="path_0" x="0" y="0" width="22" height="22" /></defs><g opacity="1" transform="translate(0 0)  rotate(0 11 11)"><mask id="bg-mask-0" fill="white"><use xlink:href="#path_0"></use></mask><g mask="url(#bg-mask-0)" ><path id="group 1" fill-rule="evenodd" style="fill:#212121" transform="translate(0 0)  rotate(0 11 11)" opacity="1" d="M0 11C0 17.08 4.92 22 11 22C17.08 22 22 17.08 22 11C22 4.92 17.08 0 11 0C4.92 0 0 4.92 0 11Z M1.60976 10.9998C1.60976 16.1898 5.80976 20.3898 10.9998 20.3898C16.1898 20.3898 20.3898 16.1898 20.3898 10.9998C20.3898 5.80976 16.1898 1.60976 10.9998 1.60976C5.80976 1.60976 1.60976 5.80976 1.60976 10.9998Z " /><path id="path 3" fill-rule="evenodd" style="fill:#212121" transform="translate(7.359231793786807 7.349513347705701)  rotate(0 3.645627429253741 3.6456274292537545)" opacity="1" d="M5.92,7.07C6.23,7.37 6.74,7.37 7.05,7.06C7.36,6.75 7.36,6.24 7.06,5.93L4.78,3.65L7.06,1.37C7.37,1.06 7.37,0.55 7.06,0.24C6.74,-0.08 6.23,-0.08 5.92,0.24L3.64,2.51L1.36,0.24C1.05,-0.07 0.55,-0.07 0.24,0.25C-0.07,0.56 -0.08,1.06 0.23,1.37L2.5,3.65L0.23,5.93C-0.08,6.24 -0.07,6.75 0.24,7.06C0.55,7.37 1.05,7.37 1.36,7.07L3.64,4.79L5.92,7.07Z " /></g></g></svg>
