<?xml version="1.0" encoding="UTF-8"?>
<svg width="25px" height="24px" viewBox="0 0 25 24" version="1.1" xmlns="http://www.w3.org/2000/svg" xmlns:xlink="http://www.w3.org/1999/xlink">
    <title>token</title>
    <defs>
        <path d="M20,10 C20,4.48 15.52,0 10,0 C4.48,0 0,4.48 0,10 C0,15.52 4.48,20 10,20 C15.52,20 20,15.52 20,10 Z" id="path-1"></path>
        <mask id="mask-2" maskContentUnits="userSpaceOnUse" maskUnits="objectBoundingBox" x="-2" y="-2" width="24" height="24">
            <rect x="-2" y="-2" width="24" height="24" fill="white"></rect>
            <use xlink:href="#path-1" fill="black"></use>
        </mask>
    </defs>
    <g id="my" stroke="none" stroke-width="1" fill="none" fill-rule="evenodd">
        <g transform="translate(-65.000000, -262.000000)" id="token">
            <g transform="translate(67.500000, 264.000000)">
                <use id="path" stroke="#212121" mask="url(#mask-2)" stroke-width="4" stroke-dasharray="0,0" xlink:href="#path-1"></use>
                <path d="M13.5,6 L11,6 L11,4 L9,4 L9,6 L8,6 C6.62,6 5.5,7.12 5.5,8.5 C5.5,9.88 6.62,11 8,11 L12,11 C12.28,11 12.5,11.22 12.5,11.5 C12.5,11.78 12.28,12 12,12 L6.5,12 L6.5,14 L9,14 L9,16 L11,16 L11,14 L12,14 C13.38,14 14.5,12.88 14.5,11.5 C14.5,10.12 13.38,9 12,9 L8,9 C7.72,9 7.5,8.78 7.5,8.5 C7.5,8.22 7.72,8 8,8 L13.5,8 L13.5,6 Z" id="path" fill="#FFA600"></path>
            </g>
        </g>
    </g>
</svg>
