<svg xmlns="http://www.w3.org/2000/svg" xmlns:xlink="http://www.w3.org/1999/xlink" width="20" height="20" viewBox="0 0 20 20" fill="none"><defs><rect id="path_0" x="0" y="0" width="20" height="20" /></defs><g opacity="1" transform="translate(0 0)  rotate(0 10 10)"><mask id="bg-mask-0" fill="white"><use xlink:href="#path_0"></use></mask><g mask="url(#bg-mask-0)" ><path id="分组 1" fill-rule="evenodd" style="fill:#1296DB" transform="translate(0 0)  rotate(0 10 10)" opacity="1" d="M0 10C0 15.52 4.48 20 10 20C15.52 20 20 15.52 20 10C20 4.48 15.52 0 10 0C4.48 0 0 4.48 0 10Z M14.8087 7.85929C14.8087 7.74929 14.8087 7.63929 14.8087 7.53929C15.2887 7.18929 15.7087 6.74929 16.0487 6.24929C15.5987 6.44929 15.1187 6.58929 14.6187 6.63929C15.1387 6.32929 15.5287 5.84929 15.7087 5.27929C15.2287 5.55929 14.6987 5.76929 14.1387 5.86929C13.6787 5.38929 13.0387 5.08929 12.3287 5.08929C10.8087 5.08929 9.54866 6.44929 9.90866 8.13929C7.84866 8.02929 6.00866 7.04929 4.78866 5.54929C4.57866 5.90929 4.45866 6.33929 4.45866 6.79929C4.45866 7.62929 4.86866 8.39929 5.55866 8.85929C5.15866 8.83929 4.76866 8.72929 4.43866 8.54929L4.43866 8.57929C4.43866 9.77929 5.28866 10.7793 6.42866 11.0093C6.02866 11.1093 5.68866 11.1093 5.30866 11.0493C5.61866 12.0393 6.53866 12.7493 7.62866 12.7693C6.77866 13.4393 5.70866 13.8293 4.54866 13.8293C4.33866 13.8293 4.14866 13.8193 3.94866 13.7993C5.04866 14.4993 6.34866 14.9093 7.75866 14.9093C12.3187 14.9093 14.8087 11.1393 14.8087 7.85929Z " /></g></g></svg>