<svg xmlns="http://www.w3.org/2000/svg" xmlns:xlink="http://www.w3.org/1999/xlink" width="20" height="20" viewBox="0 0 20 20" fill="none"><defs><rect id="path_0" x="0" y="0" width="20" height="20.000000000000004" /></defs><g opacity="1" transform="translate(0 0)  rotate(0 10 10.000000000000002)"><mask id="bg-mask-0" fill="white"><use xlink:href="#path_0"></use></mask><g mask="url(#bg-mask-0)" ><path id="路径 1" fill-rule="evenodd" style="fill:#FF0000" transform="translate(0 0)  rotate(0 10 10.000000000000002)" opacity="1" d="M0,10C0,15.52 4.48,20 10,20C15.52,20 20,15.52 20,10C20,4.48 15.52,0 10,0C4.48,0 0,4.48 0,10Z " /><path id="分组 1" fill-rule="evenodd" style="fill:#FFFFFF" transform="translate(5.000148691835372 6.489139633267466)  rotate(0 4.999851308164628 3.5110090739915973)" opacity="1" d="M3.6672 1.58303L3.6672 5.43303L6.9372 3.50303L3.6672 1.58303Z M8.28 0L1.72 0C0 0 0 1.72 0 1.72L0 5.3C0 7.02 1.72 7.02 1.72 7.02L8.28 7.02C10 7.02 10 5.3 10 5.3L10 1.72C10 0 8.28 0 8.28 0Z " /></g></g></svg>